<?xml version="1.0" encoding="UTF-8" standalone="no"?>
<!-- Created with Inkscape (http://www.inkscape.org/) -->

<svg
   width="512"
   height="256"
   viewBox="0 0 135.46667 67.733334"
   version="1.1"
   id="svg5"
   xmlns="http://www.w3.org/2000/svg"
   xmlns:svg="http://www.w3.org/2000/svg">
  <defs
     id="defs2" />
  <path
     style="fill:none;stroke:#000044;stroke-width:3.96875;stroke-linecap:butt;stroke-linejoin:miter;stroke-miterlimit:4;stroke-dasharray:none;stroke-opacity:1"
     d="M 29.633333,16.933333 12.7,25.4 v 25.399999 l 16.933333,2.11667 25.4,-2.11667 V 25.4 Z"
     id="path3493" />
  <path
     style="fill:none;stroke:#000044;stroke-width:3.175;stroke-linecap:round;stroke-linejoin:miter;stroke-miterlimit:4;stroke-dasharray:none;stroke-opacity:1"
     d="M 29.633333,16.933333 V 52.916669"
     id="path3768" />
  <path
     id="path911"
     style="color:#000000;fill:#000044;stroke-width:0.822784;-inkscape-stroke:none;fill-opacity:1"
     d="m 46.180809,26.12239 v 20.518901 l 3.96875,-0.223895 V 27.017969 Z" />
  <path
     id="path1674"
     style="color:#000000;fill:#000044;stroke-width:0.765002;-inkscape-stroke:none;fill-opacity:1"
     d="m 40.366716,28.818781 v 19.844803 l 3.547439,-0.216539 V 29.684938 Z" />
  <g
     aria-label="Inol"
     id="text3490"
     style="font-size:31.0444px;line-height:1.25;font-family:'PT Serif';-inkscape-font-specification:'PT Serif';stroke-width:0.264583;fill:#000044;fill-opacity:1">
    <path
       d="M 79.382177,51.559147 H 71.43481 v -0.900288 q 1.210732,-0.558799 2.483552,-0.745065 V 31.504465 Q 73.297474,31.380287 72.676586,31.194021 72.055698,30.97671 71.43481,30.728355 v -0.900288 h 7.947367 v 0.900288 q -0.5588,0.248355 -1.210732,0.465666 -0.651932,0.186266 -1.27282,0.310444 v 18.409329 q 0.651932,0.124177 1.303864,0.310444 0.651933,0.186266 1.179688,0.434621 z"
       id="path7104"
       style="fill:#000044;fill-opacity:1" />
    <path
       d="m 98.771344,51.559147 h -6.674546 v -0.77611 q 0.838199,-0.434622 1.83162,-0.745066 v -7.357522 q 0,-2.359375 -0.682977,-3.725328 -0.682977,-1.365954 -2.483552,-1.365954 -0.77611,0 -1.459087,0.2794 -0.651932,0.279399 -1.179687,0.77611 -0.49671,0.465666 -0.869243,1.086554 -0.372533,0.589843 -0.589844,1.241776 v 9.064964 q 0.962377,0.186267 1.862664,0.745066 v 0.77611 h -6.70559 v -0.77611 q 0.77611,-0.403577 2.04893,-0.745066 V 37.837522 l -2.04893,-0.248355 v -0.807154 q 0.807154,-0.341489 1.862664,-0.620888 1.055509,-0.2794 2.204152,-0.496711 h 0.77611 v 3.476973 h 0.03104 q 0.651932,-1.428042 1.862664,-2.452507 1.241776,-1.024466 2.980262,-1.024466 1.241776,0 2.204152,0.310444 0.993421,0.2794 1.645353,1.024466 0.651933,0.745065 0.993421,2.017886 0.341489,1.241776 0.341489,3.166528 v 7.854233 q 1.241776,0.217311 2.04893,0.745066 z"
       id="path7106"
       style="fill:#000044;fill-opacity:1" />
    <path
       d="m 100.56416,43.798047 q 0,-1.955797 0.49671,-3.445928 0.52775,-1.521176 1.49013,-2.545641 0.96237,-1.05551 2.29728,-1.583264 1.36596,-0.5588 3.01131,-0.5588 1.92475,0 3.32175,0.589844 1.397,0.589844 2.26624,1.676398 0.90029,1.055509 1.30387,2.54564 0.43462,1.490132 0.43462,3.321751 0,3.911594 -1.98684,6.022614 -1.98684,2.111019 -5.33964,2.111019 -1.86266,0 -3.22862,-0.5588 -1.36595,-0.589843 -2.26624,-1.645353 -0.90029,-1.086554 -1.36595,-2.576685 -0.43462,-1.521175 -0.43462,-3.352795 z m 2.98026,0 q 0,1.396998 0.24835,2.638774 0.2794,1.241776 0.8382,2.173108 0.58985,0.900288 1.52118,1.428042 0.93133,0.527755 2.2352,0.527755 1.67639,0 2.7319,-1.645353 1.08656,-1.645353 1.08656,-5.122326 0,-1.428042 -0.2794,-2.638774 -0.24836,-1.241776 -0.80716,-2.142063 -0.5588,-0.931332 -1.42804,-1.459087 -0.86924,-0.527755 -2.07997,-0.527755 -1.83162,0 -2.94922,1.645353 -1.1176,1.645353 -1.1176,5.122326 z"
       id="path7108"
       style="fill:#000044;fill-opacity:1" />
    <path
       d="m 124.61532,51.559147 h -6.89185 v -0.77611 q 1.02446,-0.49671 2.04893,-0.745066 V 30.386867 l -2.35938,-0.248356 v -0.807154 q 0.80716,-0.372533 2.01789,-0.651932 1.21073,-0.2794 2.35937,-0.465666 h 0.77611 v 21.824212 q 1.02447,0.248356 2.04893,0.745066 z"
       id="path7110"
       style="fill:#000044;fill-opacity:1" />
  </g>
</svg>
