<?xml version="1.0" encoding="UTF-8"?>
<svg width="181.41733" height="90.5" version="1.1" viewBox="0 0 48.000002 23.944791" xmlns="http://www.w3.org/2000/svg">
  <path d="m -48,-24 a 12,12 0 0 1 9.527344,4.873047 24,24 0 0 0 -3.09961,2.802734 24,24 0 0 1 0.167969,-0.189453 A 7.9999994,7.9999994 0 0 0 -48,-20 v 4 a 3.9999999,3.9999999 0 0 1 3.859375,2.974609 24,24 0 0 1 0.306641,-0.394531 24,24 0 0 0 -1.046875,1.626953 A 24,24 0 0 0 -48,-12 v 4 a 19.999999,19.999999 0 0 1 15.873047,8 19.999999,19.999999 0 0 1 0.896484,1.1210938 24,24 0 0 1 1.517578,-0.4179688 24,24 0 0 0 -5.835937,2.2871094 A 24,24 0 0 1 -35,2.6875 15.999999,15.999999 0 0 0 -37.453125,0 15.999999,15.999999 0 0 0 -48,-4 v 4 a 12,12 0 0 1 9.527344,4.8730469 24,24 0 0 0 -3.09961,2.8027343 24,24 0 0 1 0.167969,-0.1894531 A 7.9999994,7.9999994 0 0 0 -48,4 v 4 a 3.9999999,3.9999999 0 0 1 3.859375,2.974609 24,24 0 0 1 0.306641,-0.394531 24,24 0 0 0 -1.046875,1.626953 A 24,24 0 0 0 -48,12 v 4 a 19.999999,19.999999 0 0 1 15.873047,8 h 4.896484 A 24,24 0 0 0 -27.806641,23.048828 3.9999995,3.9999995 0 0 1 -24,20 a 3.9999995,3.9999995 0 0 1 3.859375,2.974609 24,24 0 0 1 0.0918,-0.128906 A 24,24 0 0 0 -20.753906,24 h 4.898437 A 19.999999,19.999999 0 0 1 0,16 19.999999,19.999999 0 0 1 15.873047,24 h 4.896484 A 24,24 0 0 0 20.193359,23.048828 3.9999996,3.9999996 0 0 1 24,20 a 3.9999996,3.9999996 0 0 1 3.859375,2.974609 24,24 0 0 1 0.0918,-0.128906 A 24,24 0 0 0 27.246094,24 h 4.898437 A 19.999999,19.999999 0 0 1 48,16 v -4 a 24,24 0 0 0 -3.105469,0.207031 24,24 0 0 0 -1.152343,-1.787109 24,24 0 0 1 0.443359,0.648437 A 3.9999997,3.9999997 0 0 1 48,8 V 4 A 7.9999995,7.9999995 0 0 0 41.417969,7.5136719 24,24 0 0 1 41.433594,7.53125 24,24 0 0 0 37.722656,4.3457031 24,24 0 0 1 38.46875,4.8789062 12,12 0 0 1 48,0 V -4 A 15.999999,15.999999 0 0 0 37.523438,0 h -0.002 A 15.999999,15.999999 0 0 0 35.054688,2.7167969 24,24 0 0 0 29.78125,0.72070312 24,24 0 0 1 31.242188,1.1289062 19.999999,19.999999 0 0 1 32.144531,0 19.999999,19.999999 0 0 1 48,-8 v -4 a 24,24 0 0 0 -3.105469,0.207031 24,24 0 0 0 -1.152343,-1.787109 24,24 0 0 1 0.443359,0.648437 A 3.9999999,3.9999999 0 0 1 48,-16 v -4 a 7.9999994,7.9999994 0 0 0 -6.582031,3.513672 24,24 0 0 1 0.01563,0.01758 24,24 0 0 0 -3.710938,-3.185547 24,24 0 0 1 0.746094,0.533203 A 12,12 0 0 1 48,-24 H 37.521484 a 15.999999,15.999999 0 0 0 -2.466796,2.716797 24,24 0 0 0 -3.914063,-1.615235 24,24 0 0 1 0.101563,0.02734 A 19.999999,19.999999 0 0 1 32.144531,-24 h -4.882812 a 24,24 0 0 0 -0.148438,0.216797 24,24 0 0 1 0.441407,0.07031 A 24,24 0 0 0 24,-24 a 24,24 0 0 0 -3.566406,0.289062 24,24 0 0 1 0.464844,-0.07422 A 24,24 0 0 0 20.751953,-24 h -4.878906 a 19.999999,19.999999 0 0 1 0.896484,1.121094 24,24 0 0 1 1.517578,-0.417969 24,24 0 0 0 -5.835937,2.287109 A 24,24 0 0 1 13,-21.3125 15.999999,15.999999 0 0 0 10.546875,-24 H 0 a 12,12 0 0 1 9.5273438,4.873047 24,24 0 0 0 -3.0996094,2.802734 24,24 0 0 1 0.1679687,-0.189453 A 7.9999994,7.9999994 0 0 0 0,-20 a 7.9999994,7.9999994 0 0 0 -6.5820312,3.513672 24,24 0 0 1 0.015625,0.01758 24,24 0 0 0 -3.7109378,-3.185547 24,24 0 0 1 0.746094,0.533203 A 12,12 0 0 1 0,-24 h -10.478516 a 15.999999,15.999999 0 0 0 -2.466796,2.716797 24,24 0 0 0 -3.914063,-1.615235 24,24 0 0 1 0.101563,0.02734 A 19.999999,19.999999 0 0 1 -15.855469,-24 h -4.882812 a 24,24 0 0 0 -0.148438,0.216797 24,24 0 0 1 0.441407,0.07031 A 24,24 0 0 0 -24,-24 a 24,24 0 0 0 -3.566406,0.289062 24,24 0 0 1 0.464844,-0.07422 A 24,24 0 0 0 -27.248047,-24 h -4.878906 a 19.999999,19.999999 0 0 1 0.896484,1.121094 24,24 0 0 1 1.517578,-0.417969 24,24 0 0 0 -5.835937,2.287109 A 24,24 0 0 1 -35,-21.3125 15.999999,15.999999 0 0 0 -37.453125,-24 Z m 28.066406,0.367188 a 24,24 0 0 1 1.138672,0.226562 24,24 0 0 0 -1.138672,-0.226562 z m 48,0 a 24,24 0 0 1 1.138672,0.226562 24,24 0 0 0 -1.138672,-0.226562 z m -56.208984,0.01172 a 24,24 0 0 0 -1.177734,0.238282 24,24 0 0 1 1.177734,-0.238282 z m 48,0 a 24,24 0 0 0 -1.177734,0.238282 24,24 0 0 1 1.177734,-0.238282 z m -55.707031,2.775391 a 24,24 0 0 0 -1.28125,0.78125 24,24 0 0 1 1.28125,-0.78125 z m 48,0 a 24,24 0 0 0 -1.28125,0.78125 24,24 0 0 1 1.28125,-0.78125 z M -24,-20 a 19.999999,19.999999 0 0 1 16.7695312,9.121094 24,24 0 0 1 0.1972657,-0.05274 A 24,24 0 0 0 -11.0625,-9.2773438 24,24 0 0 1 -11,-9.3125 15.999999,15.999999 0 0 0 -24,-16 15.999999,15.999999 0 0 0 -36.943359,-9.2851562 24,24 0 0 0 -40.755859,-10.873047 19.999999,19.999999 0 0 1 -24,-20 Z m 48,0 a 19.999999,19.999999 0 0 1 16.769531,9.121094 24,24 0 0 1 0.197266,-0.05274 A 24,24 0 0 0 36.9375,-9.2773438 24,24 0 0 1 37,-9.3125 15.999999,15.999999 0 0 0 24,-16 15.999999,15.999999 0 0 0 11.056641,-9.2851562 24,24 0 0 0 7.2441406,-10.873047 19.999999,19.999999 0 0 1 24,-20 Z m -24,4 a 3.9999999,3.9999999 0 0 1 3.859375,2.974609 24,24 0 0 1 0.3066406,-0.394531 24,24 0 0 0 -1.046875,1.626953 A 24,24 0 0 0 0,-12 a 24,24 0 0 0 -3.1054688,0.207031 24,24 0 0 0 -1.1523437,-1.787109 24,24 0 0 1 0.4433594,0.648437 A 3.9999999,3.9999999 0 0 1 0,-16 Z m -24,4 a 12,12 0 0 1 9.527344,4.8730469 24,24 0 0 1 0.158203,-0.109375 24,24 0 0 0 -3.421875,3.1074219 24,24 0 0 1 0.332031,-0.3847657 A 7.9999994,7.9999994 0 0 0 -24,-8 7.9999994,7.9999994 0 0 0 -30.576172,-4.4921875 24,24 0 0 0 -33.527344,-7.125 12,12 0 0 1 -24,-12 Z m 48,0 a 12,12 0 0 1 9.527344,4.8730469 24,24 0 0 1 0.158203,-0.109375 24,24 0 0 0 -3.421875,3.1074219 24,24 0 0 1 0.332031,-0.3847657 A 7.9999994,7.9999994 0 0 0 24,-8 7.9999994,7.9999994 0 0 0 17.423828,-4.4921875 24,24 0 0 0 14.472656,-7.125 12,12 0 0 1 24,-12 Z M 0,-8 A 19.999999,19.999999 0 0 1 15.873047,0 19.999999,19.999999 0 0 1 16.769531,1.1210938 24,24 0 0 1 18.287109,0.703125 24,24 0 0 0 10.869141,3.9355469 24,24 0 0 1 13,2.6875 15.999999,15.999999 0 0 0 10.546875,0 15.999999,15.999999 0 0 0 0,-4 15.999999,15.999999 0 0 0 -10.476562,0 h -0.002 a 15.999999,15.999999 0 0 0 -2.466796,2.7167969 24,24 0 0 0 -3.914063,-1.6152344 24,24 0 0 1 0.101563,0.027344 A 19.999999,19.999999 0 0 1 -15.855469,0 19.999999,19.999999 0 0 1 0,-8 Z m -24,4 a 3.9999995,3.9999995 0 0 1 3.859375,2.9746094 24,24 0 0 1 0.0918,-0.1289063 A 24,24 0 0 0 -20.753906,0 h 0.01563 a 24,24 0 0 0 -0.148438,0.21679688 24,24 0 0 1 0.441407,0.0703125 A 24,24 0 0 0 -24,0 24,24 0 0 0 -27.566406,0.2890625 24,24 0 0 1 -27.101562,0.21484375 24,24 0 0 0 -27.248047,0 h 0.01758 A 24,24 0 0 0 -27.806641,-0.95117188 3.9999995,3.9999995 0 0 1 -24,-4 Z m 48,0 a 3.9999995,3.9999995 0 0 1 3.859375,2.9746094 24,24 0 0 1 0.0918,-0.1289063 A 24,24 0 0 0 27.246094,0 h 0.01563 A 24,24 0 0 0 27.113281,0.21679688 24,24 0 0 1 29.205078,0.59375 24,24 0 0 0 24,0 24,24 0 0 0 18.679688,0.6171875 24,24 0 0 1 20.898438,0.21484375 24,24 0 0 0 20.751953,0 h 0.01758 A 24,24 0 0 0 20.193359,-0.95117188 3.9999995,3.9999995 0 0 1 24,-4 Z M 0,0 A 12,12 0 0 1 9.5273438,4.8730469 24,24 0 0 1 10.642578,4.078125 24,24 0 0 0 6.4277344,7.6757812 24,24 0 0 1 6.5957031,7.4863281 7.9999995,7.9999995 0 0 0 0,4 7.9999994,7.9999994 0 0 0 -6.5820312,7.5136719 24,24 0 0 1 -6.5664062,7.53125 24,24 0 0 0 -10.277344,4.3457031 24,24 0 0 1 -9.53125,4.8789062 12,12 0 0 1 0,0 Z m -19.933594,0.3671875 a 24,24 0 0 1 1.138672,0.2265625 24,24 0 0 0 -1.138672,-0.2265625 z m -8.208984,0.0117188 a 24,24 0 0 0 -1.177734,0.23828125 24,24 0 0 1 1.177734,-0.23828125 z m -7.707031,2.7753907 a 24,24 0 0 0 -1.28125,0.78125 24,24 0 0 1 1.28125,-0.78125 z M -24,4 a 19.999999,19.999999 0 0 1 16.7695312,9.121094 24,24 0 0 1 0.1972657,-0.05274 A 24,24 0 0 0 -11.0625,14.722656 24,24 0 0 1 -11,14.6875 15.999999,15.999999 0 0 0 -24,8 15.999999,15.999999 0 0 0 -36.943359,14.714844 24,24 0 0 0 -40.755859,13.126953 19.999999,19.999999 0 0 1 -24,4 Z m 48,0 a 19.999999,19.999999 0 0 1 16.769531,9.121094 24,24 0 0 1 0.197266,-0.05274 A 24,24 0 0 0 36.9375,14.722656 24,24 0 0 1 37,14.6875 15.999999,15.999999 0 0 0 24,8 15.999999,15.999999 0 0 0 11.056641,14.714844 24,24 0 0 0 7.2441406,13.126953 19.999999,19.999999 0 0 1 24,4 Z M 0,8 A 3.9999997,3.9999997 0 0 1 3.859375,10.974609 24,24 0 0 1 4.1660156,10.580078 24,24 0 0 0 3.1191406,12.207031 24,24 0 0 0 0,12 24,24 0 0 0 -3.1054688,12.207031 24,24 0 0 0 -4.2578125,10.419922 24,24 0 0 1 -3.8144531,11.068359 3.9999999,3.9999999 0 0 1 0,8 Z m -24,4 a 12,12 0 0 1 9.527344,4.873047 24,24 0 0 1 0.158203,-0.109375 24,24 0 0 0 -3.421875,3.107422 24,24 0 0 1 0.332031,-0.384766 A 7.9999994,7.9999994 0 0 0 -24,16 7.9999994,7.9999994 0 0 0 -30.576172,19.507812 24,24 0 0 0 -33.527344,16.875 12,12 0 0 1 -24,12 Z m 48,0 a 12,12 0 0 1 9.527344,4.873047 24,24 0 0 1 0.158203,-0.109375 24,24 0 0 0 -3.421875,3.107422 24,24 0 0 1 0.332031,-0.384766 A 7.9999994,7.9999994 0 0 0 24,16 7.9999994,7.9999994 0 0 0 17.423828,19.507812 24,24 0 0 0 14.472656,16.875 12,12 0 0 1 24,12 Z m -72,8 v 4 h 10.546875 A 15.999999,15.999999 0 0 0 -48,20 Z m 48,0 a 15.999999,15.999999 0 0 0 -10.476562,4 H 0 10.546875 A 15.999999,15.999999 0 0 0 0,20 Z m 48,0 A 15.999999,15.999999 0 0 0 37.523438,24 H 48 Z" fill="#fff" stroke-linecap="square" stroke-linejoin="round" stroke-width="56.6929"/>
  <style>
    path { animation: slide 2s linear infinite }
    @keyframes slide {
      from { transform: translate(0, 0); }
      to { transform: translate(100%, 100%); }
    }
  </style>
</svg>
