<?xml version="1.0" encoding="UTF-8" standalone="no"?>
<!-- Created with Inkscape (http://www.inkscape.org/) -->

<svg
   width="480"
   height="640"
   viewBox="0 0 127 169.33333"
   version="1.1"
   id="svg6684"
   xmlns:xlink="http://www.w3.org/1999/xlink"
   xmlns="http://www.w3.org/2000/svg"
   xmlns:svg="http://www.w3.org/2000/svg">
  <defs
     id="defs6681">
    <linearGradient
       id="linearGradient8060">
      <stop
         style="stop-color:#ffdd55;stop-opacity:1;"
         offset="0"
         id="stop8056" />
      <stop
         style="stop-color:#ffe98e;stop-opacity:1"
         offset="0.40000001"
         id="stop8320" />
      <stop
         style="stop-color:#ffde5c;stop-opacity:1"
         offset="1"
         id="stop8058" />
    </linearGradient>
    <linearGradient
       xlink:href="#linearGradient8060"
       id="linearGradient8062"
       x1="10.583328"
       y1="111.125"
       x2="116.41667"
       y2="111.125"
       gradientUnits="userSpaceOnUse" />
  </defs>
  <g
     id="layer1">
    <rect
       style="fill:url(#linearGradient8062);stroke:none;stroke-width:2.64583;stroke-linecap:round;stroke-linejoin:round;fill-opacity:1"
       id="rect6712"
       width="105.83334"
       height="95.249992"
       x="10.583328"
       y="63.5"
       ry="1.5458796e-05" />
    <path
       id="path6838"
       style="stroke-width:9.99999;stroke-linecap:round;stroke-linejoin:round;fill:#c8beb7;fill-opacity:1"
       d="M 240 40 A 159.99999 159.99999 0 0 0 160 61.435547 A 159.99999 159.99999 0 0 0 80 200 L 80 240 L 120 240 L 120 200 A 120 120 0 0 1 180 96.076172 A 120 120 0 0 1 300 96.076172 A 120 120 0 0 1 360 200 L 360 240 L 400 240 L 400 200 A 159.99999 159.99999 0 0 0 320 61.435547 A 159.99999 159.99999 0 0 0 240 40 z "
       transform="scale(0.26458333)" />
  </g>
</svg>
