<?xml version="1.0" encoding="UTF-8" standalone="no"?>
<!-- Created with Inkscape (http://www.inkscape.org/) -->

<svg
   width="640"
   height="480"
   viewBox="0 0 169.33333 127"
   version="1.1"
   id="svg5"
   xmlns:xlink="http://www.w3.org/1999/xlink"
   xmlns="http://www.w3.org/2000/svg"
   xmlns:svg="http://www.w3.org/2000/svg">
  <defs
     id="defs2">
    <linearGradient
       id="linearGradient9865">
      <stop
         style="stop-color:#ffedc1;stop-opacity:1;"
         offset="0"
         id="stop9861" />
      <stop
         style="stop-color:#fff5dc;stop-opacity:1"
         offset="0.32003078"
         id="stop10125" />
      <stop
         style="stop-color:#ffedc1;stop-opacity:0.99939913"
         offset="1"
         id="stop9863" />
    </linearGradient>
    <linearGradient
       xlink:href="#linearGradient9865"
       id="linearGradient9867"
       x1="10.583503"
       y1="68.385694"
       x2="158.75"
       y2="68.385694"
       gradientUnits="userSpaceOnUse" />
  </defs>
  <g
     id="layer1">
    <path
       style="fill:url(#linearGradient9867);fill-opacity:1;stroke:none;stroke-width:0.264583px;stroke-linecap:butt;stroke-linejoin:miter;stroke-opacity:1"
       d="M 84.666753,12.823257 10.583503,37.517674 V 123.94813 H 158.75 V 37.517674 Z"
       id="path44" />
    <path
       id="path2576"
       style="color:#000000;fill:#e6d1ae;fill-opacity:1;stroke-width:1;stroke-linecap:square;-inkscape-stroke:none"
       d="M 69.139293,7.0988058 66.596296,16.003506 67.81233,16.350771 4.8590518,34.337423 7.4038549,43.242122 84.66675,21.166666 l 77.2635,22.075456 2.54299,-8.904699 -62.95146,-17.986652 1.21603,-0.347265 -2.543,-8.9047002 -15.52806,4.4366752 z" />
    <path
       style="fill:none;stroke:#ff2a2a;stroke-width:1.984375;stroke-linecap:butt;stroke-linejoin:miter;stroke-miterlimit:4;stroke-dasharray:none;stroke-opacity:1"
       d="m 84.666665,32.459201 c 0,0 -40.887922,-22.14991 -40.887922,-8.207715 0,13.942197 13.419041,8.207715 27.153486,8.207715 z"
       id="path98203" />
    <path
       style="fill:none;stroke:#ff2a2a;stroke-width:1.984375;stroke-linecap:butt;stroke-linejoin:miter;stroke-miterlimit:4;stroke-dasharray:none;stroke-opacity:1"
       d="m 84.962394,32.459201 c 0,0 -38.661859,-16.108738 -35.732077,-2.641612 2.929784,13.467128 13.86388,9.858623 24.797981,6.250116 10.934096,-3.608504 10.934096,-3.608504 10.934096,-3.608504 z"
       id="path98205" />
    <path
       style="fill:none;stroke:#ff2a2a;stroke-width:1.984375;stroke-linecap:butt;stroke-linejoin:miter;stroke-miterlimit:4;stroke-dasharray:none;stroke-opacity:1"
       d="m 84.666665,32.459201 c 0,0 38.661855,-16.108738 35.732075,-2.641612 -2.92979,13.467128 -13.86388,9.858623 -24.797979,6.250116 C 84.666665,32.459201 84.666665,32.459201 84.666665,32.459201 Z"
       id="path98289" />
    <path
       style="fill:none;stroke:#ff2a2a;stroke-width:1.984375;stroke-linecap:round;stroke-linejoin:miter;stroke-miterlimit:4;stroke-dasharray:none;stroke-opacity:1"
       d="m 84.666665,30.578326 v 3.60681"
       id="path98701" />
    <path
       style="fill:none;stroke:#ff2a2a;stroke-width:1.984375;stroke-linecap:round;stroke-linejoin:miter;stroke-miterlimit:4;stroke-dasharray:none;stroke-opacity:1"
       d="m 86.288342,30.578326 v 3.60681"
       id="path98849" />
    <path
       style="fill:none;stroke:#ff2a2a;stroke-width:1.984375;stroke-linecap:round;stroke-linejoin:miter;stroke-miterlimit:4;stroke-dasharray:none;stroke-opacity:1"
       d="m 83.044989,30.578326 v 3.60681"
       id="path98851" />
    <path
       style="fill:none;stroke:#ff2a2a;stroke-width:1.984375;stroke-linecap:butt;stroke-linejoin:miter;stroke-miterlimit:4;stroke-dasharray:none;stroke-opacity:1"
       d="m 84.666665,32.459201 c 0,0 40.887925,-22.14991 40.887925,-8.207715 0,13.942197 -13.41905,8.207715 -27.153489,8.207715 z"
       id="path118649" />
  </g>
</svg>
