<?xml version="1.0" encoding="UTF-8" standalone="no"?>
<svg
   width="68.285156"
   height="18.638161"
   viewBox="0 0 68.285154 18.63816"
   version="1.1"
   fill="#ffffff"
   id="svg911"
   xmlns="http://www.w3.org/2000/svg"
   xmlns:svg="http://www.w3.org/2000/svg">
  <g
     aria-label="PRAY WITH"
     id="text-play-with">
    <path d="m 3.1347656,4.5117187 v 2.203125 q 0,0.6445313 0.076172,0.8144532 0.082031,0.1640625 0.28125,0.2636718 0.2050781,0.099609 0.7441406,0.099609 V 8.109375 H 0.19921875 V 7.8925781 Q 0.75,7.8925781 0.94335938,7.7929687 1.1425781,7.6875 1.21875,7.5234375 1.3007812,7.359375 1.3007812,6.7148437 v -5.15625 Q 1.3007812,0.9140625 1.21875,0.75 1.1425781,0.58007812 0.94335938,0.48046875 0.74414062,0.38085938 0.19921875,0.38085938 V 0.1640625 H 3.6621094 q 1.7109375,0 2.4550781,0.609375 0.7441406,0.609375 0.7441406,1.5234375 0,0.7734375 -0.4804687,1.3242188 -0.4804688,0.5507812 -1.3242188,0.7499999 -0.5683594,0.140625 -1.921875,0.140625 z m 0,-3.89062495 V 4.0546875 q 0.1933594,0.011719 0.2929688,0.011719 0.7148437,0 1.1015625,-0.4218749 0.3867187,-0.4277344 0.3867187,-1.3183594 0,-0.8847657 -0.3867187,-1.2949219 Q 4.1425781,0.62109375 3.375,0.62109375 Z"/>
    <path d="m 10.417969,4.4882812 v 2.2265625 q 0,0.6445313 0.07617,0.8144532 0.08203,0.1640625 0.28125,0.2636718 0.199218,0.099609 0.74414,0.099609 V 8.109375 H 7.453125 V 7.8925781 q 0.5507813,0 0.7441406,-0.099609 Q 8.3964844,7.6875 8.4726563,7.5234375 8.5546875,7.359375 8.5546875,6.7148437 v -5.15625 Q 8.5546875,0.9140625 8.4726563,0.75 8.3964844,0.58007812 8.1972656,0.48046875 7.9980469,0.38085938 7.453125,0.38085938 V 0.1640625 h 3.691406 q 1.441407,0 2.109375,0.19921875 0.667969,0.19921875 1.089844,0.73828125 0.421875,0.5332031 0.421875,1.2539063 0,0.8789062 -0.632812,1.453125 -0.404297,0.3632812 -1.13086,0.5449218 l 1.910156,2.6894531 q 0.375,0.5214844 0.533204,0.6503907 0.240234,0.1816406 0.55664,0.1992187 V 8.109375 H 13.5 L 10.939453,4.4882812 Z m 0,-3.89648433 V 4.0722656 h 0.333984 q 0.814453,0 1.21875,-0.1464843 0.404297,-0.1523438 0.632813,-0.5390625 0.234375,-0.3925782 0.234375,-1.0195313 0,-0.9082031 -0.427735,-1.3417969 -0.421875,-0.43359373 -1.365234,-0.43359373 z"/>
    <path d="m 20.894531,5.8476562 h -2.80664 l -0.333985,0.7734375 q -0.164062,0.3867188 -0.164062,0.6386719 0,0.3339844 0.269531,0.4921875 0.158203,0.09375 0.779297,0.140625 V 8.109375 H 15.996094 V 7.8925781 q 0.427734,-0.064453 0.703125,-0.3515625 0.27539,-0.2929687 0.679687,-1.2011719 L 20.220703,0 h 0.111328 l 2.865235,6.515625 q 0.410156,0.9257812 0.673828,1.1660156 0.199218,0.1816406 0.5625,0.2109375 V 8.109375 h -3.84375 V 7.8925781 h 0.158203 q 0.46289,0 0.65039,-0.1289062 0.128907,-0.09375 0.128907,-0.2695313 0,-0.1054687 -0.03516,-0.2167969 -0.01172,-0.052734 -0.175781,-0.4394531 z M 20.695312,5.4140625 19.511719,2.6777344 18.292969,5.4140625 Z"/>
    <path d="M 32.003906,0.1640625 V 0.38085938 Q 31.611328,0.43359375 31.400391,0.609375 31.107422,0.85546875 30.474609,1.9511719 L 28.751953,4.828125 V 6.75 q 0,0.6152344 0.06445,0.7675781 0.06445,0.1464844 0.251953,0.2636719 0.19336,0.1113281 0.509766,0.1113281 h 0.445312 V 8.109375 H 25.564453 V 7.8925781 h 0.416016 q 0.351562,0 0.55664,-0.1230469 Q 26.689453,7.6875 26.777344,7.4882812 26.841797,7.3476562 26.841797,6.75 V 5.15625 L 24.972656,1.7519531 Q 24.416016,0.74414062 24.1875,0.56835937 23.958984,0.38671875 23.578125,0.38085938 V 0.1640625 h 3.808594 v 0.21679688 h -0.169922 q -0.345703,0 -0.486328,0.0996094 -0.134766,0.0996094 -0.134766,0.2109375 0,0.2109375 0.46875,1.06054685 L 28.5,4.3828125 29.929687,1.9863281 q 0.533204,-0.8789062 0.533204,-1.1660156 0,-0.15820313 -0.152344,-0.26367188 Q 30.111328,0.41015625 29.578125,0.38085938 V 0.1640625 Z"/>
    <path d="m 46.382812,0.1640625 v 0.21679688 q -0.222656,0.0175781 -0.375,0.12304687 -0.152343,0.10546875 -0.269531,0.32226563 -0.03516,0.0703125 -0.36914,0.90820312 L 42.878906,8.2910156 H 42.650391 L 40.681641,3.1699219 38.513672,8.2910156 H 38.296875 L 35.683594,1.8046875 Q 35.285156,0.82617188 35.126953,0.62109375 34.96875,0.41601563 34.59375,0.38085938 V 0.1640625 h 3.445312 v 0.21679688 q -0.416015,0.0117188 -0.55664,0.12890624 -0.134766,0.11132813 -0.134766,0.28125 0,0.22265628 0.28711,0.94335938 L 39.193359,5.5898437 40.441406,2.578125 40.113281,1.734375 Q 39.84375,1.0429687 39.697266,0.81445313 39.550781,0.58007812 39.357422,0.48046875 39.169922,0.38085938 38.800781,0.38085938 V 0.1640625 h 3.84961 v 0.21679688 q -0.404297,0.005859 -0.580079,0.0644531 -0.123046,0.0410156 -0.193359,0.140625 -0.07031,0.09375 -0.07031,0.21679688 0,0.13476562 0.263671,0.82617182 L 43.517578,5.390625 44.8125,1.9863281 q 0.205078,-0.5273437 0.251953,-0.7207031 0.04687,-0.1933594 0.04687,-0.35742187 0,-0.24023438 -0.164062,-0.37500001 Q 44.783203,0.39257813 44.320312,0.38085938 V 0.1640625 Z"/>
    <path d="M 50.882812,7.8925781 V 8.109375 H 46.728516 V 7.8925781 h 0.263671 q 0.345704,0 0.556641,-0.1230469 Q 47.701172,7.6875 47.783203,7.4882812 47.847656,7.3476562 47.847656,6.75 V 1.5234375 q 0,-0.609375 -0.06445,-0.76171875 Q 47.71875,0.609375 47.519531,0.49804688 47.326172,0.38085938 46.992187,0.38085938 H 46.728516 V 0.1640625 h 4.154296 v 0.21679688 h -0.263671 q -0.345704,0 -0.556641,0.12304687 -0.152344,0.0820313 -0.240234,0.28125 -0.06445,0.140625 -0.06445,0.73828125 V 6.75 q 0,0.609375 0.06445,0.7617187 0.07031,0.1523438 0.263671,0.2695313 0.199219,0.1113281 0.533204,0.1113281 z"/>
    <path d="M 58.722656,0.1640625 V 2.3144531 H 58.511719 Q 58.324219,1.5703125 58.095703,1.2480469 57.867187,0.91992188 57.46875,0.7265625 57.246094,0.62109375 56.689453,0.62109375 H 56.097656 V 6.75 q 0,0.609375 0.06445,0.7617187 0.07031,0.1523438 0.263672,0.2695313 0.199219,0.1113281 0.539063,0.1113281 h 0.263672 V 8.109375 H 53.068359 V 7.8925781 h 0.263672 q 0.345703,0 0.556641,-0.1230469 Q 54.041016,7.6875 54.128906,7.4882812 54.193359,7.3476562 54.193359,6.75 V 0.62109375 h -0.574218 q -0.802735,0 -1.166016,0.33984375 -0.509766,0.4746094 -0.644531,1.3535156 H 51.585937 V 0.1640625 Z"/>
    <path d="M 62.449219,4.2890625 V 6.75 q 0,0.609375 0.06445,0.7617187 0.07031,0.1523438 0.263672,0.2695313 0.199218,0.1113281 0.533203,0.1113281 h 0.263672 V 8.109375 H 59.419922 V 7.8925781 h 0.263672 q 0.345703,0 0.55664,-0.1230469 Q 60.392578,7.6875 60.474609,7.4882812 60.539062,7.3476562 60.539062,6.75 V 1.5234375 q 0,-0.609375 -0.06445,-0.76171875 Q 60.410156,0.609375 60.210937,0.49804688 60.017578,0.38085938 59.683594,0.38085938 H 59.419922 V 0.1640625 h 4.154297 v 0.21679688 h -0.263672 q -0.345703,0 -0.556641,0.12304687 -0.152344,0.0820313 -0.240234,0.28125 -0.06445,0.140625 -0.06445,0.73828125 v 2.25 h 2.80664 v -2.25 q 0,-0.609375 -0.06445,-0.76171875 Q 65.126953,0.609375 64.927734,0.49804688 64.728516,0.38085938 64.394531,0.38085938 H 64.136719 V 0.1640625 h 4.148437 v 0.21679688 h -0.257812 q -0.351563,0 -0.556641,0.12304687 -0.152344,0.0820313 -0.240234,0.28125 -0.06445,0.140625 -0.06445,0.73828125 V 6.75 q 0,0.609375 0.06445,0.7617187 0.06445,0.1523438 0.263672,0.2695313 0.199218,0.1113281 0.533203,0.1113281 h 0.257812 V 8.109375 H 64.136719 V 7.8925781 h 0.257812 q 0.351563,0 0.556641,-0.1230469 Q 65.103516,7.6875 65.191406,7.4882812 65.255859,7.3476562 65.255859,6.75 V 4.2890625 Z"/>
  </g>
  <g
     aria-label="ME"
     id="text-me">
    <path d="m 5.6132812,15.743629 2.15625,-5.238281 h 3.2343748 v 0.216797 h -0.257812 q -0.351563,0 -0.5625,0.123047 -0.146485,0.08203 -0.2343752,0.275391 -0.064453,0.140625 -0.064453,0.732421 v 5.238282 q 0,0.609375 0.064453,0.761718 0.064453,0.152344 0.2636722,0.269532 0.199218,0.111328 0.533203,0.111328 h 0.257812 v 0.216797 H 6.8554687 v -0.216797 h 0.2578125 q 0.3515625,0 0.5625,-0.123047 0.1464844,-0.08203 0.234375,-0.28125 0.064453,-0.140625 0.064453,-0.738281 v -5.888672 l -3.046875,7.248047 h -0.140625 l -3.09375,-7.195313 v 5.595703 q 0,0.585938 0.029297,0.720703 0.076172,0.292969 0.3281251,0.480469 0.2578125,0.181641 0.8027343,0.181641 v 0.216797 H 0.13476562 v -0.216797 h 0.0820313 q 0.26367187,0.0059 0.49218749,-0.08203 Q 0.9375,18.058083 1.0546875,17.905739 1.171875,17.753395 1.2363281,17.478004 q 0.011719,-0.06445 0.011719,-0.597656 v -5.027344 q 0,-0.603515 -0.064453,-0.75 Q 1.1191406,10.950661 0.91992188,10.839333 0.72070312,10.722145 0.38671875,10.722145 H 0.13476562 V 10.505348 H 3.3808594 Z"/>
    <path d="m 14.484375,10.962379 v 3.234375 h 0.158203 q 0.75586,0 1.095703,-0.474609 0.339844,-0.474609 0.433594,-1.400391 h 0.222656 v 4.160157 h -0.222656 q -0.07031,-0.679688 -0.298828,-1.113282 -0.222656,-0.433593 -0.521484,-0.580078 -0.298829,-0.152343 -0.867188,-0.152343 v 2.238281 q 0,0.65625 0.05273,0.802734 0.05859,0.146485 0.210938,0.240235 0.152344,0.09375 0.492187,0.09375 h 0.47461 q 1.113281,0 1.78125,-0.515625 0.673828,-0.515625 0.966797,-1.570313 h 0.216796 l -0.357421,2.525391 h -6.867188 v -0.216797 h 0.263672 q 0.345703,0 0.556641,-0.123047 0.152343,-0.08203 0.234375,-0.28125 0.06445,-0.140625 0.06445,-0.738281 v -5.226563 q 0,-0.539062 -0.0293,-0.662109 -0.05859,-0.205078 -0.216797,-0.316406 -0.222656,-0.164063 -0.609375,-0.164063 h -0.263672 v -0.216797 h 6.650391 v 2.34961 h -0.222657 q -0.169921,-0.861329 -0.480468,-1.236329 -0.304688,-0.375 -0.867188,-0.550781 -0.328125,-0.105469 -1.230468,-0.105469 z"/>
  </g>
  <g
     aria-label="FAMILY"
     id="text-family">
    <path d="m 3.1933594,10.962379 v 3.263672 H 3.421875 q 0.5273438,0 0.8613281,-0.158203 0.3339844,-0.158203 0.5625,-0.533203 0.234375,-0.375 0.3046875,-1.013672 h 0.2050781 v 3.990235 H 5.1503906 Q 5.0390625,15.380348 4.5410156,15.022926 4.0488281,14.659645 3.421875,14.659645 H 3.1933594 v 2.431641 q 0,0.609375 0.064453,0.761718 0.070312,0.152344 0.2636719,0.269532 0.1992187,0.111328 0.5332031,0.111328 h 0.2636719 v 0.216797 H 0.1640625 v -0.216797 h 0.26367188 q 0.34570312,0 0.55664062,-0.123047 0.1523437,-0.08203 0.234375,-0.28125 0.064453,-0.140625 0.064453,-0.738281 v -5.226563 q 0,-0.609375 -0.064453,-0.761719 Q 1.1542969,10.950661 0.95507813,10.839333 0.76171875,10.722145 0.42773438,10.722145 H 0.1640625 v -0.216797 h 6.703125 v 2.279297 H 6.6269531 Q 6.5449219,11.981911 6.2050781,11.595192 5.8710937,11.208473 5.2324219,11.05027 4.8808594,10.962379 3.9316406,10.962379 Z"/>
    <path d="M 11.332031,16.188942 H 8.5253906 l -0.3339843,0.773437 q -0.1640625,0.386719 -0.1640625,0.638672 0,0.333985 0.2695312,0.492188 0.1582031,0.09375 0.7792969,0.140625 v 0.216797 H 6.4335937 v -0.216797 q 0.4277344,-0.06445 0.703125,-0.351563 0.2753907,-0.292968 0.6796875,-1.201172 l 2.8417968,-6.339843 h 0.111328 l 2.865235,6.515625 q 0.410156,0.925781 0.673828,1.166015 0.199219,0.181641 0.5625,0.210938 v 0.216797 h -3.84375 v -0.216797 h 0.158203 q 0.462891,0 0.650391,-0.128906 0.128906,-0.09375 0.128906,-0.269532 0,-0.105468 -0.03516,-0.216797 -0.01172,-0.05273 -0.175782,-0.439453 z m -0.199218,-0.433594 -1.1835942,-2.736328 -1.21875,2.736328 z"/>
    <path d="m 20.730469,15.743629 2.15625,-5.238281 h 3.234375 v 0.216797 h -0.257813 q -0.351562,0 -0.5625,0.123047 -0.146484,0.08203 -0.234375,0.275391 -0.06445,0.140625 -0.06445,0.732421 v 5.238282 q 0,0.609375 0.06445,0.761718 0.06445,0.152344 0.263672,0.269532 0.199219,0.111328 0.533203,0.111328 h 0.257813 v 0.216797 h -4.148438 v -0.216797 h 0.257813 q 0.351562,0 0.5625,-0.123047 0.146484,-0.08203 0.234375,-0.28125 0.06445,-0.140625 0.06445,-0.738281 v -5.888672 l -3.046875,7.248047 h -0.140625 l -3.09375,-7.195313 v 5.595703 q 0,0.585938 0.0293,0.720703 0.07617,0.292969 0.328125,0.480469 0.257812,0.181641 0.802734,0.181641 v 0.216797 h -2.71875 v -0.216797 h 0.08203 q 0.263672,0.0059 0.492188,-0.08203 0.228515,-0.09375 0.345703,-0.246094 0.117187,-0.152344 0.181641,-0.427735 0.01172,-0.06445 0.01172,-0.597656 v -5.027344 q 0,-0.603515 -0.06445,-0.75 -0.06445,-0.152343 -0.263672,-0.263671 -0.199218,-0.117188 -0.533203,-0.117188 h -0.251953 v -0.216797 h 3.246094 z"/>
    <path d="m 30.726562,18.233864 v 0.216797 h -4.154296 v -0.216797 h 0.263671 q 0.345704,0 0.556641,-0.123047 0.152344,-0.08203 0.234375,-0.28125 0.06445,-0.140625 0.06445,-0.738281 v -5.226563 q 0,-0.609375 -0.06445,-0.761719 -0.06445,-0.152343 -0.263672,-0.263671 -0.193359,-0.117188 -0.527344,-0.117188 h -0.263671 v -0.216797 h 4.154296 v 0.216797 h -0.263671 q -0.345704,0 -0.556641,0.123047 -0.152344,0.08203 -0.240234,0.28125 -0.06445,0.140625 -0.06445,0.738281 v 5.226563 q 0,0.609375 0.06445,0.761718 0.07031,0.152344 0.263671,0.269532 0.199219,0.111328 0.533204,0.111328 z"/>
    <path d="m 38.572266,15.661598 -0.298829,2.789063 H 31.21875 v -0.216797 h 0.263672 q 0.345703,0 0.55664,-0.123047 0.152344,-0.08203 0.234375,-0.28125 0.06445,-0.140625 0.06445,-0.738281 v -5.226563 q 0,-0.609375 -0.06445,-0.761719 -0.06445,-0.152343 -0.263671,-0.263671 -0.19336,-0.117188 -0.527344,-0.117188 H 31.21875 v -0.216797 h 4.236328 v 0.216797 h -0.345703 q -0.345703,0 -0.556641,0.123047 -0.152343,0.08203 -0.240234,0.28125 -0.06445,0.140625 -0.06445,0.738281 v 5.0625 q 0,0.609375 0.07031,0.779297 0.07031,0.164063 0.275391,0.246094 0.146484,0.05273 0.708984,0.05273 h 0.66211 q 0.632812,0 1.054687,-0.222656 0.421875,-0.222656 0.726563,-0.703125 0.310547,-0.480469 0.585937,-1.417969 z"/>
    <path d="m 46.441406,10.505348 v 0.216797 q -0.392578,0.05273 -0.603515,0.228516 -0.292969,0.246093 -0.925782,1.341797 l -1.722656,2.876953 v 1.921875 q 0,0.615234 0.06445,0.767578 0.06445,0.146484 0.251953,0.263672 0.19336,0.111328 0.509766,0.111328 h 0.445312 v 0.216797 h -4.458984 v -0.216797 h 0.416016 q 0.351562,0 0.55664,-0.123047 0.152344,-0.08203 0.240235,-0.28125 0.06445,-0.140625 0.06445,-0.738281 v -1.59375 l -1.869141,-3.404297 q -0.55664,-1.007813 -0.785156,-1.183594 -0.228516,-0.181641 -0.609375,-0.1875 v -0.216797 h 3.808594 v 0.216797 h -0.169922 q -0.345703,0 -0.486328,0.09961 -0.134766,0.09961 -0.134766,0.210938 0,0.210937 0.46875,1.060547 l 1.435547,2.630859 1.429687,-2.396484 q 0.533204,-0.878906 0.533204,-1.166016 0,-0.158203 -0.152344,-0.263672 -0.199219,-0.146484 -0.732422,-0.175781 v -0.216797 z"/>
  </g>
  <g
     aria-label="PARTNER"
     id="text-partner">
    <path d="m 3.1347656,14.853004 v 2.203125 q 0,0.644532 0.076172,0.814454 0.082031,0.164062 0.28125,0.263671 0.2050781,0.09961 0.7441406,0.09961 v 0.216797 H 0.19921875 v -0.216797 q 0.55078125,0 0.74414063,-0.09961 0.19921872,-0.105468 0.27539062,-0.269531 0.082031,-0.164062 0.082031,-0.808594 v -5.15625 q 0,-0.644531 -0.082031,-0.808593 -0.076172,-0.169922 -0.27539062,-0.269532 -0.19921876,-0.09961 -0.74414063,-0.09961 V 10.505348 H 3.6621094 q 1.7109375,0 2.4550781,0.609375 0.7441406,0.609375 0.7441406,1.523438 0,0.773437 -0.4804687,1.324218 -0.4804688,0.550782 -1.3242188,0.75 -0.5683594,0.140625 -1.921875,0.140625 z m 0,-3.890625 v 3.433594 q 0.1933594,0.01172 0.2929688,0.01172 0.7148437,0 1.1015625,-0.421875 0.3867187,-0.427734 0.3867187,-1.318359 0,-0.884766 -0.3867187,-1.294922 Q 4.1425781,10.962379 3.375,10.962379 Z"/>
    <path d="M 11.332031,16.188942 H 8.5253906 l -0.3339843,0.773437 q -0.1640625,0.386719 -0.1640625,0.638672 0,0.333985 0.2695312,0.492188 0.1582031,0.09375 0.7792969,0.140625 v 0.216797 H 6.4335937 v -0.216797 q 0.4277344,-0.06445 0.703125,-0.351563 0.2753907,-0.292968 0.6796875,-1.201172 l 2.8417968,-6.339843 h 0.111328 l 2.865235,6.515625 q 0.410156,0.925781 0.673828,1.166015 0.199219,0.181641 0.5625,0.210938 v 0.216797 h -3.84375 v -0.216797 h 0.158203 q 0.462891,0 0.650391,-0.128906 0.128906,-0.09375 0.128906,-0.269532 0,-0.105468 -0.03516,-0.216797 -0.01172,-0.05273 -0.175782,-0.439453 z m -0.199218,-0.433594 -1.1835942,-2.736328 -1.21875,2.736328 z"/>
    <path d="m 18.199219,14.829567 v 2.226562 q 0,0.644532 0.07617,0.814454 0.08203,0.164062 0.28125,0.263671 0.199218,0.09961 0.74414,0.09961 v 0.216797 h -4.066406 v -0.216797 q 0.550781,0 0.744141,-0.09961 0.199218,-0.105468 0.27539,-0.269531 0.08203,-0.164062 0.08203,-0.808594 v -5.15625 q 0,-0.644531 -0.08203,-0.808593 -0.07617,-0.169922 -0.27539,-0.269532 -0.199219,-0.09961 -0.744141,-0.09961 v -0.216797 h 3.691406 q 1.441406,0 2.109375,0.199219 0.667969,0.199219 1.089844,0.738281 0.421875,0.533203 0.421875,1.253906 0,0.878907 -0.632813,1.453125 -0.404296,0.363282 -1.130859,0.544922 l 1.910156,2.689453 q 0.375,0.521485 0.533203,0.650391 0.240235,0.181641 0.556641,0.199219 v 0.216797 H 21.28125 l -2.560547,-3.621094 z m 0,-3.896484 v 3.480468 h 0.333984 q 0.814453,0 1.21875,-0.146484 0.404297,-0.152344 0.632813,-0.539063 0.234375,-0.392578 0.234375,-1.019531 0,-0.908203 -0.427735,-1.341797 -0.421875,-0.433593 -1.365234,-0.433593 z"/>
    <path d="m 30.832031,10.505348 v 2.150391 h -0.210937 q -0.1875,-0.744141 -0.416016,-1.066406 -0.228516,-0.328125 -0.626953,-0.521485 -0.222656,-0.105469 -0.779297,-0.105469 h -0.591797 v 6.128907 q 0,0.609375 0.06445,0.761718 0.07031,0.152344 0.263672,0.269532 0.199219,0.111328 0.539063,0.111328 h 0.263672 v 0.216797 h -4.160157 v -0.216797 h 0.263672 q 0.345703,0 0.556641,-0.123047 0.152344,-0.08203 0.240234,-0.28125 0.06445,-0.140625 0.06445,-0.738281 v -6.128907 h -0.574218 q -0.802735,0 -1.166016,0.339844 -0.509766,0.47461 -0.644531,1.353516 h -0.222657 v -2.150391 z"/>
    <path d="m 34.265625,10.505348 3.919922,4.927735 v -3.416016 q 0,-0.714844 -0.205078,-0.966797 -0.28125,-0.339844 -0.94336,-0.328125 v -0.216797 h 2.625 v 0.216797 q -0.503906,0.06445 -0.679687,0.169922 -0.169922,0.09961 -0.269531,0.333984 -0.09375,0.228516 -0.09375,0.791016 v 6.615234 h -0.199219 l -5.373047,-6.615234 v 5.050781 q 0,0.685547 0.310547,0.925781 0.316406,0.240235 0.720703,0.240235 h 0.1875 v 0.216797 h -2.818359 v -0.216797 q 0.65625,-0.0059 0.914062,-0.269531 0.257813,-0.263672 0.257813,-0.896485 v -5.607422 l -0.169922,-0.210937 q -0.251953,-0.316406 -0.445313,-0.416016 -0.193359,-0.09961 -0.55664,-0.111328 v -0.216797 z"/>
    <path d="m 43.21875,10.962379 v 3.234375 h 0.158203 q 0.755859,0 1.095703,-0.474609 0.339844,-0.474609 0.433594,-1.400391 h 0.222656 v 4.160157 H 44.90625 q -0.07031,-0.679688 -0.298828,-1.113282 -0.222656,-0.433593 -0.521485,-0.580078 -0.298828,-0.152343 -0.867187,-0.152343 v 2.238281 q 0,0.65625 0.05273,0.802734 0.05859,0.146485 0.210938,0.240235 0.152344,0.09375 0.492187,0.09375 h 0.47461 q 1.113281,0 1.78125,-0.515625 0.673828,-0.515625 0.966797,-1.570313 h 0.216796 l -0.357421,2.525391 h -6.867188 v -0.216797 h 0.263672 q 0.345703,0 0.556641,-0.123047 0.152343,-0.08203 0.234375,-0.28125 0.06445,-0.140625 0.06445,-0.738281 v -5.226563 q 0,-0.539062 -0.0293,-0.662109 -0.05859,-0.205078 -0.216797,-0.316406 -0.222656,-0.164063 -0.609375,-0.164063 h -0.263672 v -0.216797 h 6.650391 v 2.34961 h -0.222657 q -0.169921,-0.861329 -0.480468,-1.236329 -0.304688,-0.375 -0.867188,-0.550781 -0.328125,-0.105469 -1.230469,-0.105469 z"/>
    <path d="m 51.152344,14.829567 v 2.226562 q 0,0.644532 0.07617,0.814454 0.08203,0.164062 0.28125,0.263671 0.199218,0.09961 0.74414,0.09961 v 0.216797 H 48.1875 v -0.216797 q 0.550781,0 0.744141,-0.09961 0.199218,-0.105468 0.27539,-0.269531 0.08203,-0.164062 0.08203,-0.808594 v -5.15625 q 0,-0.644531 -0.08203,-0.808593 -0.07617,-0.169922 -0.27539,-0.269532 -0.199219,-0.09961 -0.744141,-0.09961 v -0.216797 h 3.691406 q 1.441406,0 2.109375,0.199219 0.667969,0.199219 1.089844,0.738281 Q 55.5,11.976051 55.5,12.696754 q 0,0.878907 -0.632813,1.453125 -0.404296,0.363282 -1.130859,0.544922 l 1.910156,2.689453 q 0.375,0.521485 0.533203,0.650391 0.240235,0.181641 0.556641,0.199219 v 0.216797 h -2.501953 l -2.560547,-3.621094 z m 0,-3.896484 v 3.480468 h 0.333984 q 0.814453,0 1.21875,-0.146484 0.404297,-0.152344 0.632813,-0.539063 0.234375,-0.392578 0.234375,-1.019531 0,-0.908203 -0.427735,-1.341797 -0.421875,-0.433593 -1.365234,-0.433593 z"/>
  </g>
  <g
     aria-label="EVERYONE"
     id="text-everyone">
    <path d="m 3.1640625,10.962379 v 3.234375 h 0.1582031 q 0.7558594,0 1.0957031,-0.474609 0.3398438,-0.474609 0.4335938,-1.400391 h 0.2226562 v 4.160157 H 4.8515625 Q 4.78125,15.802223 4.5527344,15.368629 4.3300781,14.935036 4.03125,14.788551 3.7324219,14.636208 3.1640625,14.636208 v 2.238281 q 0,0.65625 0.052734,0.802734 0.058594,0.146485 0.2109375,0.240235 0.1523437,0.09375 0.4921875,0.09375 h 0.4746093 q 1.1132813,0 1.78125,-0.515625 0.6738282,-0.515625 0.9667969,-1.570313 H 7.359375 L 7.0019531,18.450661 H 0.13476562 V 18.233864 H 0.3984375 q 0.34570312,0 0.55664063,-0.123047 0.15234377,-0.08203 0.23437497,-0.28125 0.064453,-0.140625 0.064453,-0.738281 v -5.226563 q 0,-0.539062 -0.029297,-0.662109 Q 1.1660156,10.997536 1.0078125,10.886208 0.78515625,10.722145 0.3984375,10.722145 H 0.13476562 V 10.505348 H 6.7851562 v 2.34961 H 6.5625 Q 6.3925781,11.993629 6.0820312,11.618629 5.7773437,11.243629 5.2148437,11.067848 4.8867187,10.962379 3.984375,10.962379 Z"/>
    <path d="m 16.453125,10.505348 v 0.216797 q -0.433594,0.07031 -0.773437,0.462891 -0.246094,0.292968 -0.732422,1.376953 l -2.736328,6.070312 h -0.19336 L 9.2929688,12.315895 Q 8.8007813,11.173317 8.6308594,10.974098 8.4667969,10.774879 8.0039063,10.722145 V 10.505348 H 11.8125 v 0.216797 h -0.128906 q -0.515625,0 -0.703125,0.128906 -0.134766,0.08789 -0.134766,0.257813 0,0.105469 0.04687,0.251953 0.04687,0.140625 0.316406,0.767578 l 1.69336,3.955078 1.570312,-3.521484 q 0.28125,-0.638672 0.345703,-0.855469 0.06445,-0.216797 0.06445,-0.369141 0,-0.175781 -0.09375,-0.310546 -0.09375,-0.134766 -0.275391,-0.205079 -0.251953,-0.09961 -0.667969,-0.09961 v -0.216797 z"/>
    <path d="m 19.851562,10.962379 v 3.234375 h 0.158204 q 0.755859,0 1.095703,-0.474609 0.339843,-0.474609 0.433593,-1.400391 h 0.222657 v 4.160157 H 21.539062 Q 21.46875,15.802223 21.240234,15.368629 21.017578,14.935036 20.71875,14.788551 20.419922,14.636208 19.851562,14.636208 v 2.238281 q 0,0.65625 0.05273,0.802734 0.05859,0.146485 0.210937,0.240235 0.152344,0.09375 0.492188,0.09375 h 0.474609 q 1.113281,0 1.78125,-0.515625 0.673828,-0.515625 0.966797,-1.570313 h 0.216797 l -0.357422,2.525391 h -6.867187 v -0.216797 h 0.263671 q 0.345704,0 0.556641,-0.123047 0.152344,-0.08203 0.234375,-0.28125 0.06445,-0.140625 0.06445,-0.738281 v -5.226563 q 0,-0.539062 -0.0293,-0.662109 -0.05859,-0.205078 -0.216797,-0.316406 -0.222656,-0.164063 -0.609375,-0.164063 h -0.263671 v -0.216797 h 6.65039 v 2.34961 H 23.25 q -0.169922,-0.861329 -0.480469,-1.236329 -0.304687,-0.375 -0.867187,-0.550781 -0.328125,-0.105469 -1.230469,-0.105469 z"/>
    <path d="m 27.785156,14.829567 v 2.226562 q 0,0.644532 0.07617,0.814454 0.08203,0.164062 0.28125,0.263671 0.199219,0.09961 0.744141,0.09961 v 0.216797 h -4.066407 v -0.216797 q 0.550782,0 0.744141,-0.09961 0.199219,-0.105468 0.275391,-0.269531 0.08203,-0.164062 0.08203,-0.808594 v -5.15625 q 0,-0.644531 -0.08203,-0.808593 -0.07617,-0.169922 -0.275391,-0.269532 -0.199219,-0.09961 -0.744141,-0.09961 v -0.216797 h 3.691407 q 1.441406,0 2.109375,0.199219 0.667968,0.199219 1.089843,0.738281 0.421875,0.533203 0.421875,1.253906 0,0.878907 -0.632812,1.453125 -0.404297,0.363282 -1.130859,0.544922 l 1.910156,2.689453 q 0.375,0.521485 0.533203,0.650391 0.240234,0.181641 0.556641,0.199219 v 0.216797 h -2.501954 l -2.560546,-3.621094 z m 0,-3.896484 v 3.480468 h 0.333985 q 0.814453,0 1.21875,-0.146484 0.404296,-0.152344 0.632812,-0.539063 0.234375,-0.392578 0.234375,-1.019531 0,-0.908203 -0.427734,-1.341797 -0.421875,-0.433593 -1.365235,-0.433593 z"/>
    <path d="m 41.378906,10.505348 v 0.216797 q -0.392578,0.05273 -0.603515,0.228516 -0.292969,0.246093 -0.925782,1.341797 l -1.722656,2.876953 v 1.921875 q 0,0.615234 0.06445,0.767578 0.06445,0.146484 0.251953,0.263672 0.19336,0.111328 0.509766,0.111328 h 0.445312 v 0.216797 h -4.458984 v -0.216797 h 0.416016 q 0.351562,0 0.55664,-0.123047 0.152344,-0.08203 0.240235,-0.28125 0.06445,-0.140625 0.06445,-0.738281 v -1.59375 l -1.869141,-3.404297 q -0.55664,-1.007813 -0.785156,-1.183594 -0.228516,-0.181641 -0.609375,-0.1875 v -0.216797 h 3.808594 v 0.216797 h -0.169922 q -0.345703,0 -0.486328,0.09961 -0.134766,0.09961 -0.134766,0.210938 0,0.210937 0.46875,1.060547 l 1.435547,2.630859 1.429687,-2.396484 q 0.533204,-0.878906 0.533204,-1.166016 0,-0.158203 -0.152344,-0.263672 -0.199219,-0.146484 -0.732422,-0.175781 v -0.216797 z"/>
    <path d="m 46.154297,10.39402 q 1.898437,-0.07031 3.082031,1.107422 1.189453,1.177734 1.189453,2.947266 0,1.511718 -0.884765,2.660156 -1.171875,1.523437 -3.310547,1.523437 -2.144532,0 -3.316407,-1.453125 -0.925781,-1.148437 -0.925781,-2.724609 0,-1.769531 1.201172,-2.947266 1.207031,-1.183593 2.964844,-1.113281 z m 0.07031,0.375 q -1.089843,0 -1.658203,1.113281 -0.46289,0.914063 -0.46289,2.625 0,2.033203 0.714843,3.00586 0.498047,0.679687 1.394532,0.679687 0.603515,0 1.007812,-0.292969 0.515625,-0.375 0.802734,-1.195312 0.28711,-0.826172 0.28711,-2.150391 0,-1.576172 -0.292969,-2.355468 -0.292969,-0.785157 -0.75,-1.107422 -0.451172,-0.322266 -1.042969,-0.322266 z"/>
    <path d="m 53.835937,10.505348 3.919922,4.927735 v -3.416016 q 0,-0.714844 -0.205078,-0.966797 -0.28125,-0.339844 -0.943359,-0.328125 v -0.216797 h 2.625 v 0.216797 q -0.503906,0.06445 -0.679688,0.169922 -0.169922,0.09961 -0.269531,0.333984 -0.09375,0.228516 -0.09375,0.791016 v 6.615234 h -0.199219 l -5.373047,-6.615234 v 5.050781 q 0,0.685547 0.310547,0.925781 0.316407,0.240235 0.720703,0.240235 h 0.1875 v 0.216797 h -2.818359 v -0.216797 q 0.65625,-0.0059 0.914063,-0.269531 0.257812,-0.263672 0.257812,-0.896485 v -5.607422 l -0.169922,-0.210937 q -0.251953,-0.316406 -0.445312,-0.416016 -0.19336,-0.09961 -0.556641,-0.111328 v -0.216797 z"/>
    <path d="m 62.789062,10.962379 v 3.234375 h 0.158204 q 0.755859,0 1.095703,-0.474609 0.339843,-0.474609 0.433593,-1.400391 h 0.222657 v 4.160157 H 64.476562 Q 64.40625,15.802223 64.177734,15.368629 63.955078,14.935036 63.65625,14.788551 63.357422,14.636208 62.789062,14.636208 v 2.238281 q 0,0.65625 0.05273,0.802734 0.05859,0.146485 0.210937,0.240235 0.152344,0.09375 0.492188,0.09375 h 0.474609 q 1.113281,0 1.78125,-0.515625 0.673828,-0.515625 0.966797,-1.570313 h 0.216797 l -0.357422,2.525391 h -6.867187 v -0.216797 h 0.263671 q 0.345704,0 0.556641,-0.123047 0.152344,-0.08203 0.234375,-0.28125 0.06445,-0.140625 0.06445,-0.738281 v -5.226563 q 0,-0.539062 -0.0293,-0.662109 -0.05859,-0.205078 -0.216797,-0.316406 -0.222656,-0.164063 -0.609375,-0.164063 h -0.263671 v -0.216797 h 6.65039 v 2.34961 H 66.1875 q -0.169922,-0.861329 -0.480469,-1.236329 -0.304687,-0.375 -0.867187,-0.550781 -0.328125,-0.105469 -1.230469,-0.105469 z"/>
  </g>
  <g
     aria-label="...?"
     id="text-question">
    <path d="m 1.3945312,16.645973 q 0.4101563,0 0.6914063,0.28711 0.2871094,0.287109 0.2871094,0.691406 0,0.404297 -0.2871094,0.691406 -0.2871094,0.28125 -0.6914063,0.28125 -0.40429682,0 -0.6914062,-0.28125 -0.28125,-0.287109 -0.28125,-0.691406 0,-0.404297 0.28125,-0.691406 0.28710938,-0.28711 0.6914062,-0.28711 z"/>
    <path d="m 4.3945312,16.645973 q 0.4101563,0 0.6914063,0.28711 0.2871094,0.287109 0.2871094,0.691406 0,0.404297 -0.2871094,0.691406 -0.2871094,0.28125 -0.6914063,0.28125 -0.4042968,0 -0.6914062,-0.28125 -0.28125,-0.287109 -0.28125,-0.691406 0,-0.404297 0.28125,-0.691406 0.2871094,-0.28711 0.6914062,-0.28711 z"/>
    <path d="m 7.3945312,16.645973 q 0.4101563,0 0.6914063,0.28711 0.2871094,0.287109 0.2871094,0.691406 0,0.404297 -0.2871094,0.691406 -0.2871094,0.28125 -0.6914063,0.28125 -0.4042968,0 -0.6914062,-0.28125 -0.28125,-0.287109 -0.28125,-0.691406 0,-0.404297 0.28125,-0.691406 0.2871094,-0.28711 0.6914062,-0.28711 z"/>
    <path d="m 11.742188,15.860817 h -0.240235 q -0.01172,-0.650391 0.05859,-0.972656 0.07617,-0.322266 0.380859,-0.884766 0.310547,-0.568359 0.404297,-0.908203 0.09961,-0.345703 0.09961,-0.849609 0,-0.779297 -0.304688,-1.148438 -0.304687,-0.369141 -0.720703,-0.369141 -0.316406,0 -0.533203,0.169922 -0.164063,0.128907 -0.164063,0.269532 0,0.09375 0.111328,0.292968 0.251954,0.451172 0.251954,0.767578 0,0.28711 -0.199219,0.480469 -0.19336,0.19336 -0.486328,0.19336 -0.328125,0 -0.5507816,-0.228516 -0.2226563,-0.234375 -0.2226563,-0.615234 0,-0.691407 0.5976559,-1.212891 0.597657,-0.521484 1.669922,-0.521484 1.136719,0 1.728516,0.544921 0.597656,0.539063 0.597656,1.306641 0,0.556641 -0.304687,1.03125 -0.304688,0.46875 -1.177735,1.042969 -0.585937,0.386719 -0.773437,0.691406 -0.181641,0.298828 -0.222656,0.919922 z m -0.06445,0.855469 q 0.392579,0 0.667969,0.27539 0.275391,0.275391 0.275391,0.667969 0,0.392578 -0.275391,0.673828 -0.27539,0.275391 -0.667969,0.275391 -0.392578,0 -0.667968,-0.275391 -0.275391,-0.28125 -0.275391,-0.673828 0,-0.392578 0.275391,-0.667969 0.27539,-0.27539 0.667968,-0.27539 z"/>
  </g>
  <g
     aria-label="YOU"
     id="text-you">
    <path d="m 8.4257813,10.505348 v 0.216797 q -0.3925782,0.05273 -0.6035157,0.228516 -0.2929687,0.246093 -0.9257812,1.341797 l -1.7226563,2.876953 v 1.921875 q 0,0.615234 0.064453,0.767578 0.064453,0.146484 0.2519532,0.263672 Q 5.6835937,18.233864 6,18.233864 h 0.4453125 v 0.216797 H 1.9863281 v -0.216797 h 0.4160157 q 0.3515625,0 0.5566406,-0.123047 0.1523437,-0.08203 0.2402344,-0.28125 0.064453,-0.140625 0.064453,-0.738281 v -1.59375 L 1.3945312,12.093239 Q 0.83789063,11.085426 0.609375,10.909645 0.38085938,10.728004 0,10.722145 v -0.216797 h 3.8085938 v 0.216797 H 3.6386719 q -0.3457031,0 -0.4863281,0.09961 -0.1347657,0.09961 -0.1347657,0.210938 0,0.210937 0.46875,1.060547 l 1.4355469,2.630859 1.4296875,-2.396484 q 0.5332031,-0.878906 0.5332031,-1.166016 0,-0.158203 -0.1523437,-0.263672 Q 6.5332031,10.751442 6,10.722145 v -0.216797 z"/>
    <path d="m 13.201172,10.39402 q 1.898437,-0.07031 3.082031,1.107422 1.189453,1.177734 1.189453,2.947266 0,1.511718 -0.884765,2.660156 -1.171875,1.523437 -3.310547,1.523437 -2.144531,0 -3.3164065,-1.453125 -0.9257812,-1.148437 -0.9257812,-2.724609 0,-1.769531 1.2011717,-2.947266 1.207031,-1.183593 2.964844,-1.113281 z m 0.07031,0.375 q -1.089843,0 -1.658203,1.113281 -0.46289,0.914063 -0.46289,2.625 0,2.033203 0.714843,3.00586 0.498047,0.679687 1.394532,0.679687 0.603515,0 1.007812,-0.292969 0.515625,-0.375 0.802735,-1.195312 0.287109,-0.826172 0.287109,-2.150391 0,-1.576172 -0.292969,-2.355468 -0.292969,-0.785157 -0.75,-1.107422 -0.451172,-0.322266 -1.042969,-0.322266 z"/>
    <path d="m 18.175781,10.505348 h 4.101563 v 0.216797 h -0.205078 q -0.462891,0 -0.638672,0.09961 -0.169922,0.09375 -0.246094,0.263672 -0.07031,0.169922 -0.07031,0.84961 v 3.890625 q 0,1.066406 0.158204,1.412109 0.164062,0.345703 0.533203,0.574219 0.36914,0.228515 0.93164,0.228515 0.644532,0 1.095703,-0.287109 0.457032,-0.292969 0.679688,-0.802734 0.228516,-0.509766 0.228516,-1.775391 v -3.240234 q 0,-0.533203 -0.111329,-0.761719 -0.111328,-0.228516 -0.28125,-0.316406 -0.263671,-0.134766 -0.74414,-0.134766 v -0.216797 h 2.748047 v 0.216797 h -0.164063 q -0.333984,0 -0.55664,0.134766 -0.222657,0.134765 -0.322266,0.404297 -0.07617,0.1875 -0.07617,0.673828 v 3.017578 q 0,1.40039 -0.1875,2.021484 -0.181641,0.621094 -0.896484,1.142578 -0.714844,0.521485 -1.951172,0.521485 -1.03125,0 -1.59375,-0.275391 -0.767578,-0.375 -1.083985,-0.960937 -0.316406,-0.585938 -0.316406,-1.576172 v -3.890625 q 0,-0.685547 -0.07617,-0.84961 -0.07617,-0.169922 -0.263672,-0.269531 -0.1875,-0.09961 -0.691406,-0.09375 z"/>
  </g>
  <style>
    @keyframes start {
      0% { transform: translateY(-50%); opacity: 0; }
      100% { transform: translateY(0); opacity: 1; }
    }
    @keyframes end {
      0% { transform: translateY(0); opacity: 1; }
      100% { transform: translateY(-50%); opacity: 0; }
    }
    #text-me {
      animation: end 1s ease 3s both;
    }
    #text-family {
      animation: start 1s ease 4s both, end 1s ease 8s forwards;
    }
    #text-partner {
      animation: start 1s ease 9s both, end 1s ease 13s forwards;
    }
    #text-everyone {
      animation: start 1s ease 14s both, end 1s ease 18s forwards;
    }
    #text-question {
      animation: start 1s ease 19s both, end 1s ease 23s forwards;
    }
    #text-you {
      animation: start 1s ease 24s both;
    }
  </style>
</svg>
