<?xml version="1.0" encoding="UTF-8" standalone="no"?>
<svg
   width="89.70356"
   height="23.822535"
   viewBox="0 0 89.703557 23.822533"
   version="1.1"
   xmlns="http://www.w3.org/2000/svg"
   fill="#fff">
  <g
     aria-label="PRAY WITH"
     id="text1062">
    <path
       d="M 3.096,10.332 C 3.036,9.7680001 3,9.1200001 3,8.3640001 v -1.236 h 1.644 c 2.424,0 3.9,-1.38 3.9,-3.624 0,-2.196 -1.404,-3.42000003 -3.924,-3.42000003 h -2.7 c -0.828,0 -1.34399996,-0.012 -1.919999955654142,-0.036 C 0.07200004,0.64800007 0.09600004,1.2240001 0.09600004,1.9320001 v 6.48 c 0,0.768 -0.024,1.356 -0.09599999565414,1.9199999 z M 3,4.6800001 v -2.148 h 1.452 c 0.72,0 1.116,0.384 1.116,1.056 0,0.684 -0.42,1.092 -1.116,1.092 z"/>
    <path
       d="m 11.5065,0.08400007 c -0.876,0 -1.416,-0.012 -1.944,-0.036 0.072,0.576 0.096,1.06800003 0.096,1.89600003 v 6.432 c 0,0.984 -0.024,1.392 -0.096,1.9559999 h 3.084 c -0.072,-0.5879999 -0.096,-1.0919999 -0.096,-1.9679999 v -1.668 h 0.864 c 0.324,0 0.564,0.06 0.768,0.192 0.324,0.216 0.408,0.372 0.852,1.596 0.336,0.936 0.456,1.332 0.552,1.8479999 h 3.336 c -0.312,-0.6719999 -0.54,-1.1999999 -0.828,-1.9079999 -0.66,-1.632 -0.66,-1.632 -0.756,-1.812 -0.312,-0.624 -0.564,-0.84 -1.164,-1.02 0.528,-0.192 0.756,-0.312 1.02,-0.552 0.504,-0.456 0.768,-1.176 0.768,-2.076 0,-0.864 -0.252,-1.548 -0.732,-2.02800003 -0.564,-0.564 -1.416,-0.852 -2.448,-0.852 z m 1.044,4.14000003 v -1.728 h 1.512 c 0.576,0 0.9,0.3 0.9,0.84 0,0.552 -0.336,0.888 -0.9,0.888 z"/>
    <path
       d="m 23.032688,8.1720001 h 3.084 l 0.228,0.84 c 0.108,0.42 0.204,0.84 0.264,1.3199999 h 3.36 c -0.156,-0.3359999 -0.204,-0.4919999 -0.552,-1.4879999 l -2.568,-7.404 c -0.192,-0.55200003 -0.324,-0.99600003 -0.396,-1.35600003 h -3.78 c -0.06,0.336 -0.18,0.768 -0.384,1.35600003 l -2.556,7.404 c -0.312,0.912 -0.396,1.128 -0.552,1.4879999 h 3.36 c 0.06,-0.4439999 0.156,-0.8999999 0.264,-1.3199999 z m 2.412,-2.4 h -1.752 l 0.876,-3.192 z"/>
    <path
       d="m 35.357438,6.2880001 2.736,-4.608 c 0.036,-0.06 0.372,-0.588 1.032,-1.59600003 h -3.636 c -0.096,0.372 -0.192,0.6 -0.552,1.32000003 l -1.044,2.076 -1.044,-2.088 c -0.288,-0.57600003 -0.432,-0.93600003 -0.552,-1.30800003 h -3.648 c 0.768,1.16400003 0.948,1.42800003 1.044,1.59600003 l 2.736,4.608 v 2.124 c 0,0.72 -0.024,1.296 -0.096,1.9199999 h 3.12 c -0.072,-0.6719999 -0.096,-1.2599999 -0.096,-1.9199999 z"/>
    <path
       d="m 54.171,10.332 c 0.06,-0.3839999 0.144,-0.7559999 0.3,-1.3439999 l 1.92,-7.38 c 0.132,-0.516 0.336,-1.20000003 0.444,-1.52400003 h -3.252 c -0.012,0.396 -0.036,0.66 -0.156,1.33200003 l -0.552,3.144 c -0.06,0.312 -0.096,0.636 -0.216,1.62 -0.084,-0.624 -0.144,-0.948 -0.3,-1.596 l -0.78,-3.276 C 51.423,0.68400007 51.363,0.38400007 51.315,0.08400007 h -2.556 c -0.06,0.36 -0.096,0.552 -0.264,1.27200003 l -0.78,3.312 c -0.108,0.468 -0.204,0.936 -0.288,1.512 -0.096,-0.756 -0.156,-1.14 -0.216,-1.5 l -0.552,-3.252 C 46.551,0.81600007 46.515,0.50400007 46.503,0.08400007 h -3.252 c 0.12,0.36 0.324,1.05600003 0.444,1.52400003 l 1.92,7.392 c 0.144,0.552 0.228,0.912 0.3,1.3319999 h 2.88 c 0.024,-0.312 0.06,-0.4679999 0.24,-1.3079999 l 0.66,-2.976 c 0.168,-0.756 0.264,-1.26 0.348,-1.836 0.096,0.612 0.216,1.32 0.336,1.836 l 0.672,2.964 c 0.12,0.516 0.216,1.0319999 0.24,1.3199999 z"/>
    <path
       d="m 57.585938,0.08400007 c 0.084,0.54 0.096,0.9 0.096,1.92000003 v 6.408 c 0,0.888 -0.024,1.404 -0.096,1.9199999 h 3.144 c -0.072,-0.5279999 -0.096,-1.0199999 -0.096,-1.9199999 v -6.408 c 0,-0.972 0.024,-1.39200003 0.096,-1.92000003 z"/>
    <path
       d="m 67.785375,2.6400001 h 1.272 c 0.864,0 1.32,0.024 1.932,0.084 V 6.866455e-8 C 70.389375,0.06000007 69.873375,0.08400007 69.057375,0.08400007 h -5.556 c -0.732,0 -1.272,-0.024 -1.896,-0.08400000133545 V 2.7240001 c 0.612,-0.06 1.14,-0.084 1.92,-0.084 h 1.296 v 5.724 c 0,0.792 -0.024,1.344 -0.096,1.9679999 h 3.156 c -0.072,-0.6359999 -0.096,-1.1879999 -0.096,-1.9679999 z"/>
    <path
       d="m 78.387375,6.3360001 v 2.076 c 0,0.9 -0.024,1.38 -0.096,1.9199999 h 3.084 c -0.072,-0.5879999 -0.096,-1.0799999 -0.096,-1.9199999 v -6.408 c 0,-0.852 0.024,-1.39200003 0.096,-1.92000003 h -3.084 c 0.072,0.48 0.096,0.99600003 0.096,1.92000003 v 1.8 h -3.552 v -1.8 c 0,-0.792 0.024,-1.33200003 0.096,-1.92000003 h -3.072 c 0.072,0.54 0.096,1.00800003 0.096,1.92000003 v 6.408 c 0,0.936 -0.024,1.404 -0.096,1.9199999 h 3.072 c -0.072,-0.5759999 -0.096,-1.0799999 -0.096,-1.9199999 v -2.076 z"/>
  </g>
  <g
     aria-label="ME"
     id="text1064">
    <path
       d="m 8.58,21.638534 c 0,0.984 -0.024,1.32 -0.096,1.932 h 2.784 c -0.072,-0.504 -0.096,-0.984 -0.096,-1.932 v -6.384 c 0,-0.804 0.024,-1.356 0.096,-1.932 h -3.78 c -0.036,0.384 -0.096,0.648 -0.312,1.368 -0.048,0.168 -0.048,0.168 -0.144,0.492 l -1.392,4.68 -1.404,-4.68 c -0.348,-1.14 -0.408,-1.392 -0.456,-1.86 H 4.4345856e-8 C 0.06000004,13.850534 0.09600004,14.546534 0.09600004,15.254534 v 6.384 c 0,0.816 -0.024,1.344 -0.09599999565414,1.932 H 2.784 c -0.072,-0.54 -0.096,-1.092 -0.096,-1.932 v -2.46 c 0,-0.252 -0.012,-0.636 -0.096,-2.076 0.288,1.152 0.444,1.752 0.456,1.8 l 0.828,2.796 c 0.12,0.42 0.132,0.468 0.24,0.828 0.18,0.576 0.216,0.708 0.264,1.044 h 2.508 c 0.048,-0.348 0.108,-0.576 0.312,-1.26 0.072,-0.228 0.072,-0.228 0.192,-0.612 l 0.816,-2.7 c 0.048,-0.156 0.132,-0.516 0.264,-1.056 0.036,-0.192 0.108,-0.468 0.204,-0.84 -0.06,1.308 -0.084,1.8 -0.084,2.088 z"/>
    <path
       d="m 15.620813,21.074534 v -1.5 h 2.352 c 0.888,0 1.38,0.024 1.956,0.084 v -2.592 c -0.684,0.06 -1.188,0.084 -1.956,0.084 h -2.34 v -1.344 h 2.868 c 0.864,0 1.356,0.024 1.932,0.084 v -2.652 c -0.672,0.06 -1.188,0.084 -1.932,0.084 h -3.96 c -1.044,0 -1.344,0 -1.908,-0.036 0.072,0.576 0.096,1.044 0.096,1.884 v 6.576 c 0,0.912 -0.024,1.344 -0.096,1.86 0.576,-0.036 0.888,-0.036 1.92,-0.036 h 4.104 c 0.888,0 1.38,0.024 1.932,0.084 v -2.664 c -0.576,0.06 -1.032,0.084 -1.908,0.084 z"/>
  </g>
  <g
     aria-label="FAMILY"
     id="text1066">
    <path
       d="m 3.012,19.910534 h 2.196 c 0.864,0 1.356,0.024 1.932,0.084 v -2.58 c -0.564,0.06 -1.032,0.084 -1.932,0.084 H 3.012 v -1.644 H 5.76 c 0.864,0 1.356,0.024 1.932,0.084 v -2.7 c -0.564,0.06 -1.032,0.084 -1.944,0.084 H 1.92 c -1.04399996,0 -1.34399996,0 -1.90799996,-0.036 0.072,0.588 0.096,0.996 0.096,1.884 v 6.48 c 0,0.876 -0.024,1.332 -0.107999995654144,1.92 H 3.108 c -0.072,-0.54 -0.096,-1.02 -0.096,-1.968 z"/>
    <path
       d="m 11.220188,21.410534 h 3.084 l 0.228,0.84 c 0.108,0.42 0.204,0.84 0.264,1.32 h 3.36 c -0.156,-0.336 -0.204,-0.492 -0.552,-1.488 l -2.568,-7.404 c -0.192,-0.552 -0.324,-0.996 -0.396,-1.356 h -3.78 c -0.06,0.336 -0.18,0.768 -0.384,1.356 l -2.5560005,7.404 c -0.312,0.912 -0.396,1.128 -0.552,1.488 h 3.3600005 c 0.06,-0.444 0.156,-0.9 0.264,-1.32 z m 2.412,-2.4 h -1.752 l 0.876,-3.192 z"/>
    <path
       d="m 27.470625,21.638534 c 0,0.984 -0.024,1.32 -0.096,1.932 h 2.784 c -0.072,-0.504 -0.096,-0.984 -0.096,-1.932 v -6.384 c 0,-0.804 0.024,-1.356 0.096,-1.932 h -3.78 c -0.036,0.384 -0.096,0.648 -0.312,1.368 -0.048,0.168 -0.048,0.168 -0.144,0.492 l -1.392,4.68 -1.404,-4.68 c -0.348,-1.14 -0.408,-1.392 -0.456,-1.86 h -3.78 c 0.06,0.528 0.096,1.224 0.096,1.932 v 6.384 c 0,0.816 -0.024,1.344 -0.096,1.932 h 2.784 c -0.072,-0.54 -0.096,-1.092 -0.096,-1.932 v -2.46 c 0,-0.252 -0.012,-0.636 -0.096,-2.076 0.288,1.152 0.444,1.752 0.456,1.8 l 0.828,2.796 c 0.12,0.42 0.132,0.468 0.24,0.828 0.18,0.576 0.216,0.708 0.264,1.044 h 2.508 c 0.048,-0.348 0.108,-0.576 0.312,-1.26 0.072,-0.228 0.072,-0.228 0.192,-0.612 l 0.816,-2.7 c 0.048,-0.156 0.132,-0.516 0.264,-1.056 0.036,-0.192 0.108,-0.468 0.204,-0.84 -0.06,1.308 -0.084,1.8 -0.084,2.088 z"/>
    <path
       d="m 31.523438,13.322534 c 0.084,0.54 0.096,0.9 0.096,1.92 v 6.408 c 0,0.888 -0.024,1.404 -0.096,1.92 h 3.144 c -0.072,-0.528 -0.096,-1.02 -0.096,-1.92 v -6.408 c 0,-0.972 0.024,-1.392 0.096,-1.92 z"/>
    <path
       d="m 43.858875,20.930534 c -0.576,0.06 -1.032,0.084 -1.932,0.084 h -2.868 v -5.712 c 0,-0.96 0.024,-1.452 0.096,-1.98 h -3.108 c 0.072,0.624 0.096,1.164 0.096,2.016 v 6.408 c 0,0.876 -0.036,1.464 -0.096,1.86 0.516,-0.024 1.032,-0.036 1.92,-0.036 h 3.96 c 0.876,0 1.38,0.024 1.932,0.084 z"/>
    <path
       d="m 49.255875,19.526534 2.736,-4.608 c 0.036,-0.06 0.372,-0.588 1.032,-1.596 h -3.636 c -0.096,0.372 -0.192,0.6 -0.552,1.32 l -1.044,2.076 -1.044,-2.088 c -0.288,-0.576 -0.432,-0.936 -0.552,-1.308 h -3.648 c 0.768,1.164 0.948,1.428 1.044,1.596 l 2.736,4.608 v 2.124 c 0,0.72 -0.024,1.296 -0.096,1.92 h 3.12 c -0.072,-0.672 -0.096,-1.26 -0.096,-1.92 z"/>
  </g>
  <g
     aria-label="PARTNER"
     id="text1068">
    <path
       d="M 3.096,23.570534 C 3.036,23.006534 3,22.358534 3,21.602534 v -1.236 h 1.644 c 2.424,0 3.9,-1.38 3.9,-3.624 0,-2.196 -1.404,-3.42 -3.924,-3.42 h -2.7 c -0.828,0 -1.34399996,-0.012 -1.919999955654142,-0.036 C 0.07200004,13.886534 0.09600004,14.462534 0.09600004,15.170534 v 6.48 c 0,0.768 -0.024,1.356 -0.09599999565414,1.92 z M 3,17.918534 v -2.148 h 1.452 c 0.72,0 1.116,0.384 1.116,1.056 0,0.684 -0.42,1.092 -1.116,1.092 z"/>
    <path
       d="m 12.063938,21.410534 h 3.084 l 0.228,0.84 c 0.108,0.42 0.204,0.84 0.264,1.32 h 3.36 c -0.156,-0.336 -0.204,-0.492 -0.552,-1.488 l -2.568,-7.404 c -0.192,-0.552 -0.324,-0.996 -0.396,-1.356 h -3.78 c -0.06,0.336 -0.18,0.768 -0.384,1.356 l -2.5560005,7.404 c -0.312,0.912 -0.396,1.128 -0.552,1.488 h 3.3600005 c 0.06,-0.444 0.156,-0.9 0.264,-1.32 z m 2.412,-2.4 h -1.752 l 0.876,-3.192 z"/>
    <path
       d="m 21.678375,13.322534 c -0.876,0 -1.416,-0.012 -1.944,-0.036 0.072,0.576 0.096,1.068 0.096,1.896 v 6.432 c 0,0.984 -0.024,1.392 -0.096,1.956 h 3.084 c -0.072,-0.588 -0.096,-1.092 -0.096,-1.968 v -1.668 h 0.864 c 0.324,0 0.564,0.06 0.768,0.192 0.324,0.216 0.408,0.372 0.852,1.596 0.336,0.936 0.456,1.332 0.552,1.848 h 3.336 c -0.312,-0.672 -0.54,-1.2 -0.828,-1.908 -0.66,-1.632 -0.66,-1.632 -0.756,-1.812 -0.312,-0.624 -0.564,-0.84 -1.164,-1.02 0.528,-0.192 0.756,-0.312 1.02,-0.552 0.504,-0.456 0.768,-1.176 0.768,-2.076 0,-0.864 -0.252,-1.548 -0.732,-2.028 -0.564,-0.564 -1.416,-0.852 -2.448,-0.852 z m 1.044,4.14 v -1.728 h 1.512 c 0.576,0 0.9,0.3 0.9,0.84 0,0.552 -0.336,0.888 -0.9,0.888 z"/>
    <path
       d="m 35.652563,15.878534 h 1.272 c 0.864,0 1.32,0.024 1.932,0.084 v -2.724 c -0.6,0.06 -1.116,0.084 -1.932,0.084 h -5.556 c -0.732,0 -1.272,-0.024 -1.896,-0.084 v 2.724 c 0.612,-0.06 1.14,-0.084 1.92,-0.084 h 1.296 v 5.724 c 0,0.792 -0.024,1.344 -0.096,1.968 h 3.156 c -0.072,-0.636 -0.096,-1.188 -0.096,-1.968 z"/>
    <path
       d="m 43.722563,14.966534 c -0.516,-0.768 -0.816,-1.308 -0.924,-1.644 h -3.072 c 0.072,0.588 0.096,1.176 0.096,1.932 v 6.384 c 0,0.948 -0.024,1.416 -0.096,1.932 h 3.06 c -0.072,-0.576 -0.096,-1.08 -0.096,-1.92 v -2.604 c 0,-0.336 -0.024,-0.78 -0.06,-1.176 0.18,0.372 0.432,0.804 0.624,1.104 l 1.92,2.928 c 0.444,0.672 0.648,1.008 0.996,1.668 h 3.072 c -0.06,-0.528 -0.096,-1.176 -0.096,-1.932 v -6.384 c 0,-0.84 0.024,-1.344 0.096,-1.932 h -3.06 c 0.072,0.612 0.096,1.152 0.096,1.92 v 2.772 c 0,0.324 0.024,0.696 0.06,1.044 -0.156,-0.348 -0.312,-0.624 -0.54,-0.972 z"/>
    <path
       d="m 53.589563,21.074534 v -1.5 h 2.352 c 0.888,0 1.38,0.024 1.956,0.084 v -2.592 c -0.684,0.06 -1.188,0.084 -1.956,0.084 h -2.34 v -1.344 h 2.868 c 0.864,0 1.356,0.024 1.932,0.084 v -2.652 c -0.672,0.06 -1.188,0.084 -1.932,0.084 h -3.96 c -1.044,0 -1.344,0 -1.908,-0.036 0.072,0.576 0.096,1.044 0.096,1.884 v 6.576 c 0,0.912 -0.024,1.344 -0.096,1.86 0.576,-0.036 0.888,-0.036 1.92,-0.036 h 4.104 c 0.888,0 1.38,0.024 1.932,0.084 v -2.664 c -0.576,0.06 -1.032,0.084 -1.908,0.084 z"/>
    <path
       d="m 61.639313,13.322534 c -0.876,0 -1.416,-0.012 -1.944,-0.036 0.072,0.576 0.096,1.068 0.096,1.896 v 6.432 c 0,0.984 -0.024,1.392 -0.096,1.956 h 3.084 c -0.072,-0.588 -0.096,-1.092 -0.096,-1.968 v -1.668 h 0.864 c 0.324,0 0.564,0.06 0.768,0.192 0.324,0.216 0.408,0.372 0.852,1.596 0.336,0.936 0.456,1.332 0.552,1.848 h 3.336 c -0.312,-0.672 -0.54,-1.2 -0.828,-1.908 -0.66,-1.632 -0.66,-1.632 -0.756,-1.812 -0.312,-0.624 -0.564,-0.84 -1.164,-1.02 0.528,-0.192 0.756,-0.312 1.02,-0.552 0.504,-0.456 0.768,-1.176 0.768,-2.076 0,-0.864 -0.252,-1.548 -0.732,-2.028 -0.564,-0.564 -1.416,-0.852 -2.448,-0.852 z m 1.044,4.14 v -1.728 h 1.512 c 0.576,0 0.9,0.3 0.9,0.84 0,0.552 -0.336,0.888 -0.9,0.888 z"/>
  </g>
  <g
     aria-label="EVERYBODY"
     id="text1070">
    <path
       d="m 2.988,21.074534 v -1.5 H 5.34 c 0.888,0 1.38,0.024 1.956,0.084 v -2.592 c -0.684,0.06 -1.188,0.084 -1.956,0.084 H 3 v -1.344 h 2.868 c 0.864,0 1.356,0.024 1.932,0.084 v -2.652 c -0.672,0.06 -1.188,0.084 -1.932,0.084 h -3.96 c -1.04399996,0 -1.34399996,0 -1.907999955654144,-0.036 C 0.07200004,13.862534 0.09600004,14.330534 0.09600004,15.170534 v 6.576 c 0,0.912 -0.024,1.344 -0.09599999565414,1.86 C 0.57600004,23.570534 0.88800004,23.570534 1.92,23.570534 h 4.104 c 0.888,0 1.38,0.024 1.932,0.084 v -2.664 c -0.576,0.06 -1.032,0.084 -1.908,0.084 z"/>
    <path
       d="m 15.72975,23.570534 c 0.06,-0.324 0.168,-0.732 0.384,-1.356 l 2.532,-7.404 c 0.288,-0.84 0.396,-1.128 0.552,-1.488 h -3.36 c -0.06,0.456 -0.156,0.912 -0.264,1.32 l -1.74,6.432 -1.74,-6.432 c -0.12,-0.432 -0.204,-0.876 -0.264,-1.32 h -3.36 c 0.168,0.384 0.276,0.684 0.552,1.488 l 2.532,7.404 c 0.204,0.612 0.324,1.02 0.384,1.356 z"/>
    <path
       d="m 22.933313,21.074534 v -1.5 h 2.352 c 0.888,0 1.38,0.024 1.956,0.084 v -2.592 c -0.684,0.06 -1.188,0.084 -1.956,0.084 h -2.34 v -1.344 h 2.868 c 0.864,0 1.356,0.024 1.932,0.084 v -2.652 c -0.672,0.06 -1.188,0.084 -1.932,0.084 h -3.96 c -1.044,0 -1.344,0 -1.908,-0.036 0.072,0.576 0.096,1.044 0.096,1.884 v 6.576 c 0,0.912 -0.024,1.344 -0.096,1.86 0.576,-0.036 0.888,-0.036 1.92,-0.036 h 4.104 c 0.888,0 1.38,0.024 1.932,0.084 v -2.664 c -0.576,0.06 -1.032,0.084 -1.908,0.084 z"/>
    <path
       d="m 30.983063,13.322534 c -0.876,0 -1.416,-0.012 -1.944,-0.036 0.072,0.576 0.096,1.068 0.096,1.896 v 6.432 c 0,0.984 -0.024,1.392 -0.096,1.956 h 3.084 c -0.072,-0.588 -0.096,-1.092 -0.096,-1.968 v -1.668 h 0.864 c 0.324,0 0.564,0.06 0.768,0.192 0.324,0.216 0.408,0.372 0.852,1.596 0.336,0.936 0.456,1.332 0.552,1.848 h 3.336 c -0.312,-0.672 -0.54,-1.2 -0.828,-1.908 -0.66,-1.632 -0.66,-1.632 -0.756,-1.812 -0.312,-0.624 -0.564,-0.84 -1.164,-1.02 0.528,-0.192 0.756,-0.312 1.02,-0.552 0.504,-0.456 0.768,-1.176 0.768,-2.076 0,-0.864 -0.252,-1.548 -0.732,-2.028 -0.564,-0.564 -1.416,-0.852 -2.448,-0.852 z m 1.044,4.14 v -1.728 h 1.512 c 0.576,0 0.9,0.3 0.9,0.84 0,0.552 -0.336,0.888 -0.9,0.888 z"/>
    <path
       d="m 44.638688,19.526534 2.736,-4.608 c 0.036,-0.06 0.372,-0.588 1.032,-1.596 h -3.636 c -0.096,0.372 -0.192,0.6 -0.552,1.32 l -1.044,2.076 -1.044,-2.088 c -0.288,-0.576 -0.432,-0.936 -0.552,-1.308 h -3.648 c 0.768,1.164 0.948,1.428 1.044,1.596 l 2.736,4.608 v 2.124 c 0,0.72 -0.024,1.296 -0.096,1.92 h 3.12 c -0.072,-0.672 -0.096,-1.26 -0.096,-1.92 z"/>
    <path
       d="m 54.524438,23.570534 c 2.232,0 3.444,-0.996 3.444,-2.808 0,-0.84 -0.264,-1.488 -0.792,-1.932 -0.36,-0.324 -0.696,-0.456 -1.368,-0.588 0.564,-0.18 0.816,-0.3 1.08,-0.54 0.48,-0.408 0.708,-0.996 0.708,-1.8 0,-1.656 -1.152,-2.58 -3.204,-2.58 h -3.336 c -1.044,0 -1.344,0 -1.908,-0.036 0.072,0.684 0.096,1.176 0.096,1.884 v 6.576 c 0,0.888 -0.024,1.344 -0.096,1.86 0.576,-0.036 0.888,-0.036 1.92,-0.036 z m -2.4,-6.324 v -1.548 h 1.776 c 0.516,0 0.804,0.276 0.804,0.756 0,0.48 -0.3,0.792 -0.78,0.792 z m 0,3.924 v -1.824 h 1.896 c 0.588,0 0.948,0.348 0.948,0.912 0,0.564 -0.36,0.912 -0.936,0.912 z"/>
    <path
       d="m 63.827063,23.822534 c 3.012,0 5.052,-2.184 5.052,-5.436 0,-3.216 -1.98,-5.292 -5.052,-5.292 -3.108,0 -5.088,2.088 -5.088,5.34 0,3.288 1.98,5.388 5.088,5.388 z m -0.012,-2.484 c -1.296,0 -2.088,-1.104 -2.088,-2.916 0,-1.8 0.78,-2.868 2.088,-2.868 1.296,0 2.064,1.068 2.064,2.868 0,1.812 -0.78,2.916 -2.064,2.916 z"/>
    <path
       d="m 70.0455,21.746534 c 0,0.9 -0.024,1.32 -0.096,1.86 0.576,-0.036 0.876,-0.036 1.92,-0.036 h 2.748 c 1.452,0 2.676,-0.456 3.516,-1.296 0.9,-0.9 1.38,-2.256 1.38,-3.888 0,-1.632 -0.444,-2.928 -1.32,-3.78 -0.852,-0.84 -2.1,-1.284 -3.6,-1.284 h -2.724 c -1.14,0 -1.392,0 -1.932,-0.036 0.084,0.564 0.108,0.984 0.108,1.896 z m 2.904,-0.708 v -5.184 h 1.332 c 1.548,0 2.256,0.78 2.256,2.496 0,1.764 -0.756,2.688 -2.196,2.688 z"/>
    <path
       d="m 85.935563,19.526534 2.736,-4.608 c 0.036,-0.06 0.372,-0.588 1.032,-1.596 h -3.636 c -0.096,0.372 -0.192,0.6 -0.552,1.32 l -1.044,2.076 -1.044,-2.088 c -0.288,-0.576 -0.432,-0.936 -0.552,-1.308 h -3.648 c 0.768,1.164 0.948,1.428 1.044,1.596 l 2.736,4.608 v 2.124 c 0,0.72 -0.024,1.296 -0.096,1.92 h 3.12 c -0.072,-0.672 -0.096,-1.26 -0.096,-1.92 z"/>
  </g>
  <g
     aria-label="...?"
     id="text1072">
    <path
       d="m 2.832,23.570534 v -2.832 H 3.3378601e-8 v 2.832 z"/>
    <path
       d="m 6.9804375,23.570534 v -2.832 h -2.832 v 2.832 z"/>
    <path
       d="m 11.128875,23.570534 v -2.832 h -2.832 v 2.832 z"/>
    <path
       d="m 14.365313,20.918534 v 2.652 h 2.832 v -2.652 z m 0.6,-4.332 c 0.024,-0.396 0.06,-0.588 0.192,-0.792 0.168,-0.288 0.456,-0.42 0.876,-0.42 0.588,0 0.936,0.3 0.936,0.78 0,0.36 -0.192,0.624 -0.636,0.864 -0.564,0.324 -0.564,0.324 -0.696,0.408 -0.312,0.204 -0.552,0.432 -0.732,0.72 -0.288,0.456 -0.396,0.888 -0.396,1.668 0,0.204 0,0.264 -0.024,0.396 h 2.604 c -0.024,-0.216 -0.024,-0.3 -0.024,-0.396 0,-0.6 0.18,-0.876 0.78,-1.224 0.984,-0.564 1.104,-0.648 1.392,-0.9 0.504,-0.444 0.732,-0.984 0.732,-1.776 0,-0.54 -0.12,-0.996 -0.348,-1.368 -0.576,-0.936 -1.836,-1.476 -3.444,-1.476 -1.524,0 -2.76,0.504 -3.468,1.416 -0.42,0.528 -0.588,0.972 -0.684,1.848 z"/>
  </g>
  <g
     aria-label="YOU"
     id="text1074">
    <path
       d="m 6.708,19.526534 2.736,-4.608 c 0.036,-0.06 0.372,-0.588 1.032,-1.596 H 6.84 c -0.096,0.372 -0.192,0.6 -0.552,1.32 l -1.044,2.076 -1.044,-2.088 c -0.288,-0.576 -0.432,-0.936 -0.552,-1.308 H 0 c 0.768,1.164 0.948,1.428 1.044,1.596 l 2.736,4.608 v 2.124 c 0,0.72 -0.024,1.296 -0.096,1.92 h 3.12 c -0.072,-0.672 -0.096,-1.26 -0.096,-1.92 z"/>
    <path
       d="m 15.279188,23.822534 c 3.012,0 5.052,-2.184 5.052,-5.436 0,-3.216 -1.98,-5.292 -5.052,-5.292 -3.108,0 -5.088,2.088 -5.088,5.34 0,3.288 1.98,5.388 5.088,5.388 z m -0.012,-2.484 c -1.296,0 -2.088,-1.104 -2.088,-2.916 0,-1.8 0.78,-2.868 2.088,-2.868 1.296,0 2.064,1.068 2.064,2.868 0,1.812 -0.78,2.916 -2.064,2.916 z"/>
    <path
       d="m 28.049625,13.322534 c 0.072,0.588 0.096,0.948 0.096,1.92 v 4.056 c 0,1.428 -0.588,2.064 -1.908,2.064 -1.308,0 -1.884,-0.624 -1.884,-2.052 v -4.068 c 0,-0.96 0.024,-1.464 0.096,-1.92 h -3.084 c 0.072,0.516 0.096,1.008 0.096,1.92 v 4.02 c 0,3.012 1.632,4.56 4.788,4.56 0.828,0 1.62,-0.144 2.352,-0.42 0.456,-0.18 0.888,-0.456 1.26,-0.84 0.768,-0.768 1.176,-1.896 1.176,-3.276 v -4.044 c 0,-0.936 0.024,-1.356 0.096,-1.92 z"/>
  </g>
  <style>
    @keyframes start {
      0% { transform: translateY(-50%); opacity: 0; }
      100% { transform: translateY(0); opacity: 1; }
    }
    @keyframes end {
      0% { transform: translateY(0); opacity: 1; }
      100% { transform: translateY(-50%); opacity: 0; }
    }
    #text1064 {
      animation: end 1s ease 3s both;
    }
    #text1066 {
      animation: start 1s ease 4s both, end 1s ease 8s forwards;
    }
    #text1068 {
      animation: start 1s ease 9s both, end 1s ease 13s forwards;
    }
    #text1070 {
      animation: start 1s ease 14s both, end 1s ease 18s forwards;
    }
    #text1072 {
      animation: start 1s ease 19s both, end 1s ease 23s forwards;
    }
    #text1074 {
      animation: start 1s ease 24s both;
    }
  </style>
</svg>
